<svg width="248" height="32" viewBox="0 0 248 32" fill="none" xmlns="http://www.w3.org/2000/svg">
<path d="M65.7089 10C66.599 10.006 69.4196 10.8704 69.7795 10.7455C74.542 9.14581 78.8858 10.2923 82.9073 13.7932C85.8805 16.3821 85.7854 21.8144 81.9786 21.8009C78.2734 21.788 73.4119 17.7663 70.78 14.5151C71.6409 16.9357 72.4846 19.2782 73.4694 21.6275C73.7904 22.3929 74.2946 23.8372 73.9671 24.6364C72.8541 24.5471 71.5243 21.0134 71.0106 19.8456C70.7016 18.4022 70.0418 17.4334 69.6659 15.694C69.4487 17.6096 66.8525 25.2371 65.0586 24.9943C63.9361 23.7406 67.6162 16.4973 68.3663 15.1584C67.5783 15.8392 66.6471 17.1258 65.7293 18.0027C63.5929 19.9672 60.4681 21.7145 57.8544 22.2241C54.2665 22.9238 52.7553 17.9564 55.1854 14.8828C57.9823 11.3453 61.9046 10.2525 65.7089 10ZM82.116 18.5225C82.4792 18.0036 82.4632 18.1881 82.4865 17.6327C80.8645 14.0841 74.9264 12.9067 71.9786 13.1564C74.4363 15.0026 79.2294 20.827 82.116 18.5225ZM57.8358 18.6705C59.3627 19.144 59.8848 18.6127 61.2394 17.7733C63.5186 16.3604 65.6597 15.0872 67.6949 13.1055L67.7226 12.9386C67.4242 12.8516 67.5367 12.8475 67.2398 12.9265C64.6487 13.0764 61.9298 13.1962 59.6156 14.8634C58.759 15.4803 57.301 16.7308 56.9964 17.9638C57.172 18.4661 57.4154 18.5188 57.8358 18.6705Z" fill="#FE4513"/>
<path d="M37.1149 2.32822C37.9165 2.47112 38.235 2.88706 38.7417 3.47742C38.8549 3.99922 38.7725 5.01854 38.964 5.24477C39.7824 5.60265 42.5731 5.21424 43.5698 5.0786C44.5136 5.48327 45.7558 6.4105 45.1785 7.56971C44.1348 9.66516 40.8224 8.27645 39.0324 8.57702C38.8331 8.6103 38.62 9.2247 38.5389 9.4144C38.7124 9.86312 38.787 10.1632 39.1971 10.4024C39.3891 10.3351 39.5826 10.2743 39.7749 10.209C40.6324 9.91767 43.3364 10.5211 44.2913 10.7541C46.6416 13.9772 45.3197 16.1395 45.685 19.6774C45.7338 20.1514 45.7436 20.5726 45.7428 21.0491C45.159 21.7366 44.7865 22.1745 43.9909 22.5797C43.2541 22.4586 42.7566 22.2048 42.1693 22.1147L42.1265 22.2316C42.2622 22.4773 43.9295 24.093 44.246 24.3783C46.1807 26.1229 48.7919 27.2634 45.34 29.4296C45.0143 29.3763 44.3163 29.2672 44.1265 29.035C43.1514 27.8432 42.1057 26.8479 40.9068 25.8606C40.5099 25.526 40.1019 25.2065 39.7146 24.8608C39.446 24.6213 39.1656 23.7572 38.8038 23.8007C38.7467 24.293 39.0256 25.237 39.0429 25.7105C39.0767 26.6387 39.0151 28.365 38.7698 29.2077L38.738 29.3133C38.4538 29.5996 38.3709 29.6576 38.0297 29.8764C35.76 29.9925 35.5878 28.823 35.3667 26.884C35.205 25.463 35.2931 24.0888 35.2964 22.6653C34.144 24.1839 33.6768 26.1384 32.1006 27.3847C31.3693 27.9631 30.9295 29.2257 29.9541 29.4026C29.4994 29.4852 29.0673 29.2717 28.7111 29.0089C28.2837 28.6939 27.6451 28.1065 27.6008 27.5532C27.5051 26.3614 30.7507 23.2259 31.5874 22.1395C31.0108 22.156 29.5776 22.2514 29.345 21.6079C28.993 20.5586 28.5093 17.9491 28.7869 16.8559C29.3187 14.7635 27.3356 11.5952 29.7213 10.5473C31.0654 9.95672 33.8588 9.82733 35.1189 10.2771C35.3214 10.0178 35.5369 9.67792 35.7235 9.40038C35.5535 9.01998 35.3524 8.73118 35.1264 8.38507C34.2258 8.72467 33.9309 8.4669 33.0329 8.55024C32.5137 8.6018 31.9644 8.73819 31.4489 8.78574C29.8872 8.92964 28.9775 8.26894 28.9584 6.66226C28.8625 5.93024 29.1767 4.85637 30.1418 4.95472C31.655 5.10888 33.2935 5.24577 34.8232 5.34813C35.1341 5.13916 35.3099 4.97724 35.5878 4.73249C35.6496 3.57853 35.9555 2.78219 37.1149 2.32822ZM34.9529 18.8067C35.3917 18.7637 35.729 18.4486 35.8261 18.0197C35.6233 17.1923 33.5935 17.3938 32.9042 17.4013C32.4145 17.659 32.0648 17.8638 32.1131 18.4832C32.5129 19.068 33.2445 18.7777 33.8133 18.6503C34.2206 18.5592 34.5613 18.6924 34.9529 18.8067ZM41.7497 14.9242L42.0922 14.9762C42.6727 14.5235 41.9948 13.1543 40.9646 13.4909C40.6321 13.5995 39.5456 13.5237 39.1823 13.4108C38.7515 13.7329 38.5702 14.0187 38.756 14.5668C38.9522 14.8015 38.9452 14.7863 39.2432 14.8799C40.3084 14.4817 40.6637 14.7135 41.7497 14.9242ZM32.2909 15.0375C32.6268 14.8634 32.8847 14.7175 33.2452 14.5941C33.7752 14.7315 34.6106 14.9642 35.1459 14.9347C35.4313 14.5891 35.6636 14.3696 35.6203 13.9111C35.2388 13.4178 34.7133 13.8158 34.2759 14.0437C33.4392 13.5688 33.4082 13.5235 32.4776 13.537C31.8192 14.0415 32.0162 14.3613 32.2909 15.0375ZM41.4685 18.7229C41.8724 18.4932 42.0018 18.2827 42.177 17.847L42.1272 17.6836C41.2077 17.3998 40.7731 18.4188 38.9953 17.4353C38.7655 17.7186 38.6561 17.8069 38.5652 18.1476C38.6769 18.5532 39.0549 18.7662 39.4227 18.5445C40.3723 17.9721 40.528 18.9957 41.4685 18.7229Z" fill="#FE4513"/>
<path d="M7.45458 3.62854C8.25748 3.58674 8.53645 3.75117 9.06059 3.73165C10.2504 3.6876 11.4717 3.56897 12.6798 3.66007C12.7933 3.66858 13.1843 3.92435 13.3108 4.00518C13.5685 3.99092 13.7205 3.82649 13.9638 3.66057C15.0623 3.76493 17.4157 4.1233 18.4494 4.47292C20.3243 7.96333 19.8584 8.78269 19.6732 12.6795C19.657 13.0186 19.8364 14.9707 19.8471 15.6186C19.363 16.491 18.9303 16.8361 18.1156 17.373C17.5797 17.226 17.1132 17.1585 16.6663 16.8371C16.0158 16.8346 15.3508 16.9385 14.7 16.9878C14.1885 17.0266 13.338 16.8256 12.8877 17.0356C12.8388 17.2398 12.8652 17.2446 12.9387 17.449C13.763 18.2884 16.9741 17.1405 18.1131 17.6645C19.846 18.4621 19.7841 20.6311 17.9762 21.3028C17.7893 21.3721 17.7542 21.3634 17.6008 21.5083C18.1336 22.7073 22.0982 24.9942 21.3708 26.3536C19.2739 30.2732 18.0029 26.8008 16.1449 25.1363C15.3909 24.4606 14.6323 23.652 13.9199 22.9288C13.7027 22.7113 13.4109 22.0661 13.1914 21.984C13.0881 22.0969 13.0655 22.2253 13.1123 22.3742C13.4896 23.5757 13.4236 24.6608 13.3394 25.9101L13.3381 26.0533C13.3162 28.0276 13.2307 28.8305 11.0567 28.63C10.8598 28.4849 10.4672 28.1963 10.3449 27.9888C9.68913 26.8757 9.66784 24.7907 9.62714 23.5196C9.60471 22.8192 9.68847 22.0766 9.45795 21.4385L9.34955 21.4014C9.14496 21.6707 8.8401 22.3722 8.64959 22.708C8.18183 23.5327 7.68758 24.3816 7.19954 25.1947C6.99884 25.5293 6.33422 25.9915 6.08512 26.281C5.76084 26.6579 5.37703 27.4042 5.12046 27.8522C3.97356 28.3227 3.18825 28.1167 2.35463 27.0674C1.09008 25.4754 3.55149 23.4944 4.36578 22.2613C4.50725 22.0471 4.89522 21.7723 4.93365 21.5328C3.99136 21.3669 3.27423 20.8065 3.12777 19.847C2.85652 18.0702 3.06319 17.4823 4.75322 17.1742C6.02306 17.633 7.12481 17.6172 8.47887 17.6818C9.18424 17.7153 9.44481 17.3126 9.91164 16.8074C8.99532 16.8036 4.18261 17.0211 3.69468 16.6287C3.29438 16.3066 3.23575 15.6892 3.14998 15.2152C2.89444 13.8035 2.82787 12.4428 2.88469 11.007C2.9093 10.3854 3.01477 9.73269 2.97664 9.11329C2.92318 8.24488 2.63949 7.39724 2.59738 6.52182C2.5615 5.77604 2.69501 5.1714 3.22649 4.61632C4.21358 3.58499 6.13922 3.65556 7.45458 3.62854ZM7.012 11.7213C6.54152 11.9533 6.13339 12.2623 6.19783 12.858C6.34486 13.0489 6.44936 13.1638 6.72517 13.1911C7.75645 13.2934 7.92319 12.9383 9.04269 13.2334C9.48799 13.2158 9.8845 12.9308 9.94078 12.4716C9.67543 11.473 7.8115 11.7025 7.012 11.7213ZM13.2031 7.36471C12.7414 7.82019 12.5093 8.70286 13.3235 8.89155C14.7476 8.53068 14.3959 8.7484 15.9139 8.9819C16.1986 9.04722 16.0934 9.08251 16.2816 8.9774C16.4307 8.22886 16.583 7.53063 15.5032 7.45756C14.6402 7.39899 14.0822 7.5509 13.2031 7.36471ZM7.2953 8.64455C8.0389 8.835 8.56356 9.00267 9.33863 8.90332C9.55674 8.56746 9.8304 8.17856 9.7788 7.76288C9.34547 7.34269 8.79557 7.81568 8.34618 7.98761C7.50257 7.46706 7.5218 7.44029 6.55055 7.46932C6.32306 7.63499 6.08855 7.88375 6.07721 8.16654C6.03373 9.25293 6.77121 8.92559 7.2953 8.64455ZM14.0929 12.7406C14.7898 13.0334 15.0588 13.3577 15.7767 13.0377C16.2298 12.6487 16.1611 12.4355 16.2243 11.7969C14.48 12.4761 14.5068 12.2058 13.0177 11.7728C12.2834 13.0784 13.0311 13.1841 14.0929 12.7406Z" fill="#FE4513"/>
<path d="M186.151 6.20877C186.513 6.22932 187.045 6.48081 187.391 6.62826C189.528 6.0704 192.361 7.77466 193.82 9.28607C194.156 9.63481 194.955 10.2364 195.159 10.6411C195.604 11.526 195.962 12.1671 196.525 12.9841C196.536 13.6324 196.647 14.5443 196.688 15.2228C196.843 17.8203 196.244 19.5176 194.834 21.6206C194.066 22.7656 193.012 23.1637 191.859 23.7945C191.526 23.977 191.035 24.4979 190.669 24.5632C189.858 24.7081 189.125 24.7554 188.289 24.9129C186.1 25.0074 183.321 24.422 181.499 23.1227C181.116 22.8496 180.677 22.2794 180.314 21.9529C179.598 21.3082 178.681 20.8438 178.337 19.8963C177.241 17.1165 177.259 14.2191 178.337 11.4371C178.536 10.9252 178.851 10.3167 179.208 9.88137C180.005 9.06774 182.41 7.0443 183.438 6.78968C184.676 6.48283 184.635 6.87282 186.151 6.20877ZM180.717 14.9645C180.98 16.6978 181.192 18.5545 182.775 19.5665C184.08 20.4008 185.307 20.6321 186.671 21.5336L187.592 21.378C188.473 21.1823 189.522 20.8932 190.39 20.5251C191.619 20.0037 192.949 18.294 192.976 16.9065C192.994 15.9471 193.059 14.8027 192.923 13.8408C192.501 12.6019 190.95 11.7335 190.067 10.6856C188.738 10.2911 187.559 9.85187 186.181 9.94214C185.034 10.17 184.193 10.456 183.207 11.1146C181.813 12.0465 181.513 13.5716 180.717 14.9645Z" fill="#0B468B"/>
<path d="M144.078 6.20877C144.679 6.21117 144.979 6.50723 145.381 6.54935C147.074 6.63857 147.921 6.9959 149.339 7.80499C151.565 9.07433 152.991 11.6276 153.435 14.1097C153.518 14.57 153.536 15.9349 153.545 16.637C153.563 18.0151 152.042 20.4049 151.23 21.5391C149.567 23.3485 146.141 24.8362 143.695 24.8974C142.632 24.8333 140.187 24.2785 139.039 24.0152C138.86 23.9742 138.264 23.5296 138.083 23.3801C135.744 21.4417 134.426 18.8031 134.082 15.8038C134.046 15.4938 134.05 14.7401 134.153 14.4066C134.601 12.9568 135.295 10.9597 136.151 9.72929C136.288 9.53326 137.591 8.73429 137.794 8.41398C137.84 8.34238 138.177 7.97084 138.248 7.88943C138.61 7.77479 139.03 7.72176 139.409 7.65944C140.828 6.40663 142.186 6.4769 144.078 6.20877ZM143.757 21.0239C144.9 20.8227 145.235 20.7216 146.392 20.8404C148.208 19.4728 150.454 17.1376 149.878 14.5348C149.655 13.5271 148.432 11.7608 147.807 10.8576C146.266 10.091 145.426 10.286 143.805 9.75547C141.21 10.501 139.938 10.5946 138.418 13.1688C137.695 14.3499 137.696 15.6153 137.889 16.946C137.921 17.166 137.904 17.8162 137.98 17.9856C138.928 20.1078 141.474 21.7412 143.757 21.0239Z" fill="#0B468B"/>
<path d="M202.365 7.36208C203.67 6.24743 205.385 6.8752 206.448 8.01941C207.083 8.59885 207.677 10.391 208.205 10.8837C209.946 12.5075 211.035 14.227 212.285 16.2478C212.718 16.9472 213.812 17.755 214.287 18.4872C214.546 18.8863 214.717 19.8392 215.112 19.9791L215.277 19.8932C215.499 19.3563 214.993 18.0973 214.934 17.4771C214.871 17.2498 215.1 16.243 215.045 16.0989C214.527 14.7358 214.721 13.8735 214.882 12.4776C214.942 11.9566 214.625 11.0829 214.632 10.4736C214.645 9.36134 214.359 7.90851 215.225 7.00179C216.347 5.94674 217.028 6.38998 217.928 7.25309C218.273 8.33394 217.909 9.63334 218.53 10.7676C218.66 11.0041 218.469 12.3472 218.408 12.7181C218.049 14.29 218.713 16.1921 218.644 17.7106C218.574 19.2491 218.259 20.6071 218.546 22.2164C218.687 23.0065 218.817 23.567 218.336 24.2208C215.725 26.4721 214.069 24.128 212.602 22.2271C211.641 20.9829 210.873 20.0124 210.029 18.6615C209.468 17.761 208.262 16.9314 207.583 15.9413L205.996 13.6301C205.739 13.2548 205.736 12.8943 205.316 12.6685L205.154 12.7405C205.056 13.0561 205.461 13.7749 205.29 14.489C205.1 15.2822 205.185 16.3907 205.443 17.1681C205.682 18.0258 205.249 19.0814 205.294 19.9413C205.369 21.3595 205.672 22.2437 205.396 23.692C205.267 24.3715 205.479 25.5771 204.251 25.5931C201.73 25.6261 201.785 23.9425 202.195 22.0805C202.28 21.621 201.631 19.9078 201.691 19.2519C201.635 18.7121 201.959 17.6937 201.877 17.2022C201.501 15.4107 201.596 14.3777 201.75 12.6131C201.969 10.0967 200.505 9.80101 202.365 7.36208Z" fill="#0B468B"/>
<path d="M106.701 7.82945C107.97 8.88495 108.494 10.2465 106.788 11.5533C105.861 12.2636 104.03 10.3628 103.063 10.256C102.225 10.1634 101.642 10.2265 100.729 9.98602C100.032 10.2793 99.1344 10.8069 98.4931 11.1637C97.5007 11.7158 96.3435 12.9104 96.139 14.0544C95.8203 15.8362 95.8688 17.1036 96.6569 18.7408C96.8405 19.1835 96.9709 19.6624 97.2335 20.0685C98.5135 22.0453 101.142 22.1802 103.146 21.364C103.829 21.0859 104.459 20.6396 105.08 20.2306C105.41 19.5171 105.596 19.0593 105.862 18.3225C104.451 18.1636 102.972 18.59 101.525 18.0894C100.784 17.8325 99.7798 17.3023 99.6529 16.4325C99.5323 15.6066 100.495 14.5825 101.297 14.5043C101.838 14.4451 102.23 14.6547 102.758 14.7018C104.142 14.6221 105.513 14.6238 106.894 14.5443C107.156 14.6974 107.545 15.0022 107.801 15.1902C108.317 15.5449 109.002 16.1886 109.488 16.6189C109.837 18.721 108.682 22.0044 107.107 23.461C105.684 24.7767 103.034 25.4878 101.106 25.4734C100.717 25.4705 98.8775 25.0842 98.359 25.0743C97.2577 24.3235 95.7987 23.8476 94.8609 22.9102C94.4333 22.4826 93.7355 20.8186 93.154 20.3209C92.5958 18.6818 92.3363 16.7802 92.4805 15.0871C92.6862 12.6703 93.1557 11.6172 94.7136 9.84392C95.2219 9.26533 95.5425 8.35325 96.3204 7.81276C97.3301 7.08962 99.4972 6.21545 100.777 6.37119C101.926 6.51094 103.292 6.5977 104.476 6.71759C105.492 7.54413 105.529 7.26717 106.609 7.78454L106.701 7.82945Z" fill="#0B468B"/>
<path d="M237.084 7.82945C238.352 8.88495 238.877 10.2465 237.17 11.5533C236.243 12.2636 234.412 10.3628 233.445 10.256C232.607 10.1634 232.024 10.2265 231.111 9.98602C230.414 10.2793 229.516 10.8069 228.875 11.1637C227.883 11.7158 226.726 12.9104 226.521 14.0544C226.202 15.8362 226.251 17.1036 227.039 18.7408C227.223 19.1835 227.353 19.6624 227.616 20.0685C228.896 22.0453 231.524 22.1802 233.528 21.364C234.211 21.0859 234.841 20.6396 235.462 20.2306C235.792 19.5171 235.978 19.0593 236.244 18.3225C234.833 18.1636 233.354 18.59 231.907 18.0894C231.166 17.8325 230.162 17.3023 230.035 16.4325C229.914 15.6066 230.877 14.5825 231.679 14.5043C232.22 14.4451 232.612 14.6547 233.14 14.7018C234.524 14.6221 235.895 14.6238 237.276 14.5443C237.538 14.6974 237.927 15.0022 238.183 15.1902C238.699 15.5449 239.384 16.1886 239.87 16.6189C240.219 18.721 239.064 22.0044 237.489 23.461C236.066 24.7767 233.416 25.4878 231.488 25.4734C231.099 25.4705 229.26 25.0842 228.741 25.0743C227.64 24.3235 226.181 23.8476 225.243 22.9102C224.815 22.4826 224.118 20.8186 223.536 20.3209C222.978 18.6818 222.718 16.7802 222.863 15.0871C223.068 12.6703 223.538 11.6172 225.096 9.84392C225.604 9.26533 225.925 8.35325 226.702 7.81276C227.712 7.08962 229.879 6.21545 231.159 6.37119C232.309 6.51094 233.674 6.5977 234.859 6.71759C235.874 7.54413 235.911 7.26717 236.992 7.78454L237.084 7.82945Z" fill="#0B468B"/>
<path d="M128.118 6.64398C130.093 7.31273 129.752 10.4685 129.535 12.0912C130.181 13.4942 129.86 13.4801 129.869 14.8999C129.882 17.0722 130.057 18.9908 128.958 20.9719C128.522 21.7568 128.081 22.5819 127.722 23.4099C126.413 23.9436 125.689 24.4819 124.269 24.9232C120.741 26.0198 119.02 24.6209 116.075 23.0741C116.034 22.9605 115.98 22.8071 115.936 22.7002C115.398 21.3981 114.633 20.957 114.191 19.4844C113.671 17.7553 114.13 16.769 114.218 15.0564C114.208 14.2649 114.004 13.47 113.954 12.6832C113.911 12.0036 113.977 11.3546 113.899 10.6754C113.791 9.75761 113.727 9.14713 113.842 8.23438C114.604 7.20275 115.579 6.25436 116.891 7.24667C117.906 8.01425 117.347 9.73681 117.406 10.8119C117.428 11.66 117.793 12.463 117.781 13.3176C117.748 15.59 116.854 18.8605 118.964 20.5123C119.203 20.6998 120.671 21.5004 120.991 21.5215C121.753 21.5712 122.943 21.6084 123.733 21.5243C125.46 21.2619 125.669 20.1635 126.011 18.7472C126.052 18.5757 126.472 17.9879 126.61 17.7903C126.172 15.0972 126.592 11.9167 126.013 9.21051C125.961 8.96967 125.68 8.48894 125.55 8.25442C126.312 7.32264 126.815 6.57113 128.118 6.64398Z" fill="#0B468B"/>
<path d="M161.136 5.67537L161.218 5.66649C162.413 5.93364 164.249 5.78849 165.497 5.86082C166.426 5.91466 167.256 6.1834 168.123 6.40991C170.312 6.85177 171.012 8.48769 172.38 9.99113C173.308 11.0108 174.21 13.7795 174.08 15.1124C173.819 17.8144 173.021 20.6677 170.681 22.3057C170.121 22.7448 169.305 23.0594 168.73 23.4313C167.393 24.2959 166.733 24.5923 165.115 24.4149C164.008 24.2934 162.637 24.3684 161.504 24.3341C161.035 24.3199 160.405 25.0634 159.855 24.9154C159.384 24.8226 158.572 24.1088 158.284 23.6818C157.619 21.1627 158.353 18.3244 157.696 15.691C157.622 15.414 157.794 14.7333 157.73 14.5121C157.021 12.0469 156.902 9.72612 157.388 7.20076C157.557 6.32035 159.465 6.21994 160.153 6.0734C160.45 6.01025 160.776 5.8533 161.044 5.72131L161.136 5.67537ZM161.417 20.6974C163.91 20.7889 165.237 21.7074 167.524 20.3168C167.865 20.1088 168.355 19.955 168.712 19.7193C169.947 18.6068 170.309 16.7321 170.537 15.1376C170.471 14.9245 170.463 14.9376 170.306 14.773C170.282 14.2373 170.413 13.8587 170.418 13.3305L170.36 13.259C168.31 10.6951 168.854 9.71881 164.675 9.25943C164.009 9.18615 162.067 9.15375 161.492 9.31544C161.229 9.38887 160.869 9.44777 160.695 9.63655C160.463 10.9496 161.029 14.2682 161.327 15.6672C161.401 16.0147 161.169 16.9233 161.198 17.279C161.306 18.6037 161.507 19.3424 161.417 20.6974Z" fill="#0B468B"/>
</svg>
