<svg width="400" height="560" viewBox="0 0 400 560" fill="none" xmlns="http://www.w3.org/2000/svg">
<g clip-path="url(#clip0_4151_20087)">
<mask id="mask0_4151_20087" style="mask-type:luminance" maskUnits="userSpaceOnUse" x="0" y="0" width="400" height="560">
<path d="M399.99 182.967V184.226C342.068 228.885 313.839 273.809 322.31 325.37C328.405 362.446 353.444 402.984 399.99 449.336V450.726C352.828 403.905 327.477 362.977 321.323 325.537C312.744 273.369 341.352 228.019 399.99 182.967ZM399.99 162.253V163.476C330.151 212.497 295.238 261.085 304.541 317.67C311.37 359.207 341.977 405.094 399.99 458.656V459.999C341.361 405.997 310.441 359.732 303.553 317.835C294.152 260.645 329.435 211.655 399.99 162.253ZM399.99 142.573V143.771C318.355 196.925 276.709 248.773 286.773 309.976C294.273 355.562 330.41 406.392 399.99 466.855V468.171C329.788 407.276 293.339 356.084 285.786 310.139C275.624 248.323 317.644 196.088 399.99 142.573ZM399.99 123.687V124.875C306.689 182.011 258.238 236.791 269.004 302.284C277.112 351.604 318.748 407.062 399.99 474.216V475.507C318.122 407.93 276.184 352.122 268.027 302.447C257.147 236.331 305.98 181.168 399.99 123.687ZM399.99 105.402V106.563C295.117 167.582 239.806 225.045 251.236 294.578C259.916 347.375 307.016 407.201 399.99 480.885V482.156C306.385 408.063 258.986 347.893 250.249 294.743C238.715 224.585 294.407 166.757 399.99 105.402ZM399.99 87.6037V88.7547C283.635 153.598 221.404 213.517 233.469 286.879C242.684 342.938 295.214 406.926 399.99 487.011V488.263C294.582 407.779 241.756 343.456 232.48 287.044C220.315 213.049 282.938 152.773 399.99 87.5955V87.6037ZM399.99 70.1476V71.2987L392.522 75.3729C269.557 142.416 203.288 203.682 215.702 279.179C225.432 338.324 283.345 406.294 399.99 492.68V493.92C282.723 407.14 224.495 338.842 214.715 279.344C202.214 203.305 268.678 141.752 392.042 74.4908L399.99 70.1476ZM399.99 52.649V53.7999C391.922 58.2815 383.509 62.9071 374.751 67.6766C251.79 134.722 185.525 195.984 197.932 271.483C208.139 333.555 271.444 405.345 399.99 497.952V499.186C270.816 406.199 207.214 334.085 196.945 271.646C184.444 195.609 250.91 134.054 374.274 66.7946C383.208 61.9204 391.78 57.2053 399.99 52.649ZM399.99 34.9608V36.1178C386.719 43.6551 372.387 51.5774 356.983 59.9784C234.021 127.022 167.751 188.288 180.165 263.783C190.829 328.654 259.479 404.139 399.99 502.9V504.122C258.844 404.978 189.899 329.176 179.178 263.948C166.675 187.909 233.143 126.353 356.507 59.0943C372.101 50.5915 386.591 42.5755 399.99 34.9608ZM399.99 16.9935V18.1609C382.006 28.7334 361.753 39.9924 339.216 52.2782C216.253 119.323 149.984 180.587 162.396 256.084C173.5 323.635 247.476 402.685 399.99 507.551V508.773C246.85 403.538 172.572 324.167 161.402 256.258C148.901 180.221 215.367 118.665 338.731 51.4043C361.485 38.9922 381.9 27.6435 399.99 16.9935ZM397.683 9.17912e-06H399.179L399.305 0.187407C377.372 13.7056 351.441 28.2301 321.451 44.582C198.484 111.633 132.212 172.891 144.628 248.386C156.156 318.507 235.441 401.026 399.99 511.943V513.147C234.811 401.864 155.228 319.029 143.641 248.547C131.14 172.508 197.606 110.955 320.968 43.6919C350.462 27.6171 376.016 13.3145 397.683 9.17912e-06ZM367.151 9.17912e-06H369.125C350.004 11.3711 328.199 23.5163 303.683 36.8716C180.72 103.917 114.451 165.181 126.865 240.678C138.8 313.278 223.364 399.165 399.994 516.094V517.296C222.736 400 137.87 313.8 125.876 240.833C113.375 164.794 179.841 103.24 303.205 35.9794C327.094 22.9725 348.401 11.1124 367.151 9.17912e-06ZM336.206 9.17912e-06H338.217C322.405 9.13031 304.983 18.7881 285.918 29.1855C162.953 96.2286 96.6837 157.493 109.098 232.99C121.422 307.982 211.242 397.154 399.99 520.073V521.271C210.614 397.993 120.494 308.509 108.106 233.147C95.6012 157.11 162.069 95.5544 285.433 28.2933C303.894 18.2361 320.814 8.86549 336.202 9.17912e-06H336.206ZM304.92 9.17912e-06H306.965C294.88 6.82838 281.939 13.9901 268.144 21.4853C145.186 88.5325 78.9123 149.794 91.322 225.292C103.756 300.911 194.965 390.943 386.966 515.471C391.409 518.353 395.731 521.24 399.99 524.127V525.349C395.557 522.336 391.052 519.329 386.421 516.325C194.164 391.619 102.82 301.377 90.3369 225.457C77.8359 149.418 144.3 87.8643 267.664 20.6032C280.868 13.4027 293.287 6.53504 304.92 9.17912e-06ZM273.384 9.17912e-06H275.452C267.433 4.45719 259.075 9.05284 250.377 13.7871C127.412 80.8302 61.1449 142.096 73.5587 217.593C85.9888 293.213 177.199 383.245 369.198 507.773C380.01 514.787 390.274 521.819 399.992 528.869V530.112C390.088 522.929 379.672 515.762 368.655 508.616C176.403 383.921 85.0482 293.677 72.5675 217.766C60.0665 141.73 126.534 80.1744 249.895 12.9153C258.023 8.47716 265.852 4.172 273.382 9.17912e-06H273.384ZM241.652 9.17912e-06H243.74C240.092 2.0018 236.381 4.03137 232.61 6.08884C109.643 73.132 43.3755 134.398 55.7914 209.895C68.2234 285.514 159.434 375.546 351.433 500.077C369.042 511.497 385.229 522.96 399.994 534.467V535.748C385.042 524.104 368.673 512.493 350.888 500.914C158.633 376.219 67.2849 285.975 54.8041 210.056C42.3031 134.017 108.771 72.4639 232.133 5.20278C235.352 3.44951 238.525 1.71525 241.65 9.17912e-06H241.652ZM209.827 9.17912e-06H211.917C90.8416 66.4096 25.7135 127.305 38.03 202.197C50.4601 277.816 141.673 367.848 333.672 492.376C358.605 508.553 380.601 524.836 400 541.143V542.459C380.477 525.993 358.309 509.553 333.127 493.218C140.86 368.524 49.5074 278.281 37.0327 202.362C24.6858 127.262 89.372 66.2935 209.817 9.17912e-06H209.827ZM178.284 9.17912e-06H180.311C68.1282 63.4599 8.41438 122.507 20.2586 194.499C32.6826 270.12 123.901 360.15 315.892 484.68C348.782 506.009 376.583 527.522 399.99 549.04V550.411C376.488 528.718 348.502 507.021 315.349 485.521C123.09 360.826 31.7441 270.582 19.2654 194.664C7.39681 122.481 66.697 63.354 178.274 9.17912e-06H178.284ZM149.171 9.17912e-06C45.6397 60.5713 -8.87256 117.726 2.4791 186.802C14.9092 262.422 106.122 352.452 298.121 476.982C339.786 504 373.275 531.311 399.99 558.558V560C373.214 532.554 339.552 505.037 297.58 477.815C105.325 353.118 13.9747 262.876 1.49394 186.955C-9.8861 117.712 44.237 60.4755 147.174 9.17912e-06H149.171Z" fill="white"/>
</mask>
<g mask="url(#mask0_4151_20087)">
<path d="M399.99 560.008H-9.89014V0.00012207H399.99V560.008Z" fill="white"/>
</g>
</g>
<defs>
<clipPath id="clip0_4151_20087">
<rect width="400" height="560" fill="white" transform="matrix(1 0 0 -1 0 560)"/>
</clipPath>
</defs>
</svg>
