<svg width="512" height="64" viewBox="0 0 512 64" fill="none" xmlns="http://www.w3.org/2000/svg">
<g clip-path="url(#clip0_4151_13165)">
<path opacity="0.2" d="M511.034 24.6827H498.763C498.699 23.9185 498.433 23.2599 497.966 22.7071C497.499 22.1542 496.895 21.7315 496.154 21.4388C495.43 21.1298 494.625 20.9754 493.739 20.9754C492.596 20.9754 491.613 21.1868 490.792 21.6095C489.971 22.0323 489.568 22.6339 489.584 23.4144C489.568 23.9673 489.802 24.4794 490.285 24.951C490.784 25.4225 491.742 25.7884 493.159 26.0486L500.696 27.4144C504.496 28.1136 507.322 29.2925 509.174 30.951C511.042 32.5933 511.984 34.7965 512 37.5608C511.984 40.2274 511.195 42.5445 509.633 44.512C508.087 46.4632 505.969 47.9754 503.28 49.0486C500.607 50.1055 497.555 50.634 494.125 50.634C488.457 50.634 484.02 49.4632 480.816 47.1218C477.627 44.7803 475.848 41.6909 475.478 37.8535H488.715C488.892 39.0404 489.471 39.9591 490.454 40.6096C491.452 41.2437 492.708 41.5608 494.222 41.5608C495.446 41.5608 496.452 41.3494 497.241 40.9266C498.047 40.5039 498.457 39.9022 498.473 39.1217C498.457 38.4063 498.103 37.8372 497.41 37.4144C496.734 36.9917 495.671 36.6502 494.222 36.39L487.652 35.2193C483.867 34.5526 481.033 33.2843 479.149 31.4144C477.265 29.5445 476.331 27.138 476.347 24.1949C476.331 21.5933 477.007 19.39 478.376 17.5851C479.761 15.764 481.734 14.3819 484.294 13.4388C486.871 12.4794 489.922 11.9998 493.449 11.9998C498.811 11.9998 503.039 13.1217 506.13 15.3656C509.238 17.6095 510.873 20.7152 511.034 24.6827Z" fill="#AF8D6A"/>
<path opacity="0.2" d="M470.717 12.4878V22.2439H446.272V12.4878H470.717ZM451.007 3.51221H464.34V37.9025C464.34 38.4228 464.429 38.8619 464.606 39.2196C464.783 39.561 465.057 39.8212 465.427 40.0001C465.798 40.1627 466.273 40.244 466.853 40.244C467.255 40.244 467.722 40.1952 468.254 40.0976C468.801 40.0001 469.204 39.9188 469.461 39.8537L471.394 49.3172C470.798 49.496 469.944 49.7155 468.833 49.9757C467.738 50.2359 466.434 50.4066 464.92 50.4879C461.861 50.6505 459.292 50.3334 457.215 49.5367C455.137 48.7237 453.575 47.4472 452.529 45.7074C451.482 43.9676 450.975 41.7887 451.007 39.1708V3.51221Z" fill="#AF8D6A"/>
<path opacity="0.2" d="M416.209 49.951V12.4876H429.157V19.6095H429.543C430.219 16.9754 431.29 15.0485 432.756 13.829C434.237 12.6095 435.968 11.9998 437.949 11.9998C438.529 11.9998 439.1 12.0485 439.664 12.1461C440.244 12.2274 440.799 12.3493 441.331 12.512V23.9998C440.671 23.7721 439.857 23.6014 438.891 23.4876C437.925 23.3738 437.096 23.3168 436.403 23.3168C435.099 23.3168 433.923 23.6177 432.877 24.2193C431.846 24.8047 431.033 25.6339 430.437 26.7071C429.841 27.764 429.543 29.0079 429.543 30.4388V49.951H416.209Z" fill="#AF8D6A"/>
<path opacity="0.2" d="M384.999 50.5364C382.632 50.5364 380.539 50.1462 378.719 49.3657C376.916 48.5689 375.498 47.3657 374.468 45.7559C373.437 44.1461 372.922 42.0974 372.922 39.6096C372.922 37.5608 373.268 35.8128 373.961 34.3656C374.653 32.9022 375.619 31.7071 376.859 30.7803C378.099 29.8534 379.54 29.1461 381.183 28.6583C382.842 28.1705 384.629 27.8534 386.545 27.7071C388.623 27.5445 390.289 27.3494 391.545 27.1217C392.818 26.8778 393.735 26.5445 394.299 26.1217C394.863 25.6827 395.145 25.1055 395.145 24.39V24.2925C395.145 23.3168 394.774 22.5689 394.033 22.0486C393.293 21.5282 392.343 21.2681 391.183 21.2681C389.911 21.2681 388.872 21.5526 388.067 22.1217C387.278 22.6746 386.803 23.5282 386.642 24.6827H374.371C374.532 22.4063 375.249 20.3087 376.521 18.39C377.809 16.455 379.685 14.9103 382.149 13.7559C384.613 12.5851 387.689 11.9998 391.376 11.9998C394.033 11.9998 396.417 12.3168 398.526 12.951C400.636 13.5689 402.431 14.4388 403.913 15.5607C405.394 16.6664 406.522 17.9672 407.295 19.4632C408.084 20.9429 408.478 22.5526 408.478 24.2925V49.951H396.014V44.6827H395.724C394.984 46.0811 394.082 47.2112 393.019 48.073C391.972 48.9348 390.773 49.5608 389.42 49.951C388.083 50.3413 386.61 50.5364 384.999 50.5364ZM389.347 42.0486C390.362 42.0486 391.312 41.8372 392.198 41.4144C393.099 40.9917 393.832 40.3819 394.396 39.5852C394.959 38.7884 395.241 37.8209 395.241 36.6827V33.5608C394.887 33.7071 394.508 33.8453 394.106 33.9754C393.719 34.1055 393.301 34.2274 392.85 34.3413C392.415 34.4551 391.948 34.5608 391.449 34.6583C390.966 34.7559 390.458 34.8453 389.927 34.9266C388.896 35.0892 388.051 35.3575 387.391 35.7315C386.747 36.0892 386.264 36.5364 385.941 37.073C385.636 37.5933 385.483 38.1787 385.483 38.8291C385.483 39.8697 385.845 40.6665 386.569 41.2193C387.294 41.7722 388.22 42.0486 389.347 42.0486Z" fill="#AF8D6A"/>
<path opacity="0.2" d="M349.695 50.634C345.734 50.634 342.32 49.8697 339.454 48.3413C336.603 46.7966 334.405 44.5852 332.859 41.7071C331.329 38.8128 330.564 35.3494 330.564 31.3169C330.564 27.4469 331.337 24.0648 332.883 21.1705C334.429 18.2762 336.611 16.0242 339.429 14.4144C342.247 12.8046 345.573 11.9998 349.405 11.9998C352.207 11.9998 354.744 12.4388 357.014 13.3168C359.285 14.1949 361.225 15.4713 362.836 17.1461C364.446 18.8046 365.686 20.8209 366.556 23.1949C367.425 25.5689 367.86 28.2437 367.86 31.2193V34.3413H334.719V26.9266H355.589C355.573 25.8534 355.299 24.9103 354.768 24.0973C354.253 23.2681 353.552 22.6258 352.666 22.1705C351.797 21.699 350.806 21.4632 349.695 21.4632C348.616 21.4632 347.626 21.699 346.724 22.1705C345.822 22.6258 345.098 23.2599 344.55 24.0729C344.019 24.886 343.737 25.8372 343.705 26.9266V34.9266C343.705 36.1299 343.954 37.203 344.454 38.1461C344.953 39.0892 345.669 39.8291 346.603 40.3657C347.537 40.9022 348.665 41.1705 349.985 41.1705C350.903 41.1705 351.74 41.0404 352.497 40.7803C353.27 40.5201 353.93 40.1461 354.478 39.6583C355.026 39.1543 355.428 38.5526 355.686 37.8535H367.86C367.441 40.4551 366.451 42.7152 364.889 44.634C363.327 46.5364 361.258 48.0161 358.681 49.073C356.121 50.1136 353.125 50.634 349.695 50.634Z" fill="#AF8D6A"/>
<path opacity="0.2" d="M279.348 49.9513V0H292.778V19.5122H310.556V0H323.986V49.9513H310.556V30.4391H292.778V49.9513H279.348Z" fill="#AF8D6A"/>
<path opacity="0.2" d="M232.858 50.4391C230.217 50.4391 227.785 49.7399 225.563 48.3415C223.357 46.9432 221.585 44.8212 220.249 41.9757C218.928 39.1301 218.268 35.5448 218.268 31.2196C218.268 26.6992 218.961 23.0244 220.345 20.1952C221.746 17.3659 223.55 15.2927 225.756 13.9756C227.978 12.6586 230.313 12 232.761 12C234.597 12 236.207 12.3252 237.592 12.9756C238.977 13.6098 240.136 14.4634 241.07 15.5366C242.004 16.5935 242.713 17.7561 243.196 19.0244H243.389V0H256.723V49.9513H243.486V43.805H243.196C242.681 45.0732 241.94 46.2115 240.974 47.2196C240.024 48.2115 238.864 49.0001 237.495 49.5855C236.143 50.1546 234.597 50.4391 232.858 50.4391ZM237.785 40.0976C239.009 40.0976 240.056 39.7399 240.926 39.0245C241.811 38.2927 242.488 37.2684 242.955 35.9513C243.438 34.6179 243.679 33.0407 243.679 31.2196C243.679 29.3659 243.438 27.7805 242.955 26.4635C242.488 25.1301 241.811 24.1139 240.926 23.4147C240.056 22.6992 239.009 22.3415 237.785 22.3415C236.562 22.3415 235.515 22.6992 234.645 23.4147C233.792 24.1139 233.131 25.1301 232.664 26.4635C232.214 27.7805 231.988 29.3659 231.988 31.2196C231.988 33.0732 232.214 34.6667 232.664 36.0001C233.131 37.3171 233.792 38.3334 234.645 39.0488C235.515 39.748 236.562 40.0976 237.785 40.0976Z" fill="#AF8D6A"/>
<path opacity="0.2" d="M187.426 28.8778V49.951H174.093V12.4876H186.75V19.6095H187.137C187.942 17.2355 189.359 15.3737 191.388 14.0241C193.433 12.6746 195.816 11.9998 198.538 11.9998C201.163 11.9998 203.441 12.6095 205.374 13.829C207.322 15.0323 208.828 16.6908 209.891 18.8046C210.97 20.9185 211.501 23.3331 211.485 26.0486V49.951H198.151V28.8778C198.167 27.0242 197.7 25.5689 196.75 24.512C195.816 23.4551 194.512 22.9266 192.837 22.9266C191.742 22.9266 190.784 23.1705 189.963 23.6583C189.158 24.1299 188.538 24.8128 188.103 25.7071C187.668 26.5851 187.443 27.6421 187.426 28.8778Z" fill="#AF8D6A"/>
<path opacity="0.2" d="M148.094 50.634C144.068 50.634 140.622 49.8291 137.756 48.2193C134.889 46.5933 132.691 44.3331 131.161 41.4388C129.632 38.5283 128.867 35.1543 128.867 31.3169C128.867 27.4795 129.632 24.1136 131.161 21.2193C132.691 18.3087 134.889 16.0485 137.756 14.4388C140.622 12.8128 144.068 11.9998 148.094 11.9998C152.12 11.9998 155.566 12.8128 158.433 14.4388C161.299 16.0485 163.497 18.3087 165.027 21.2193C166.557 24.1136 167.322 27.4795 167.322 31.3169C167.322 35.1543 166.557 38.5283 165.027 41.4388C163.497 44.3331 161.299 46.5933 158.433 48.2193C155.566 49.8291 152.12 50.634 148.094 50.634ZM148.191 40.6827C149.318 40.6827 150.292 40.3006 151.114 39.5364C151.935 38.7722 152.571 37.6827 153.022 36.2681C153.473 34.8534 153.698 33.1705 153.698 31.2193C153.698 29.2518 153.473 27.5689 153.022 26.1705C152.571 24.7559 151.935 23.6664 151.114 22.9022C150.292 22.138 149.318 21.7559 148.191 21.7559C146.999 21.7559 145.977 22.138 145.123 22.9022C144.27 23.6664 143.617 24.7559 143.167 26.1705C142.716 27.5689 142.49 29.2518 142.49 31.2193C142.49 33.1705 142.716 34.8534 143.167 36.2681C143.617 37.6827 144.27 38.7722 145.123 39.5364C145.977 40.3006 146.999 40.6827 148.191 40.6827Z" fill="#AF8D6A"/>
<path opacity="0.2" d="M96.9199 64.0001C95.3901 64.0001 93.9327 63.8781 92.5478 63.6342C91.1629 63.4066 89.9471 63.0895 88.9004 62.683L91.799 53.122C92.8941 53.5122 93.8925 53.7643 94.7943 53.8781C95.7122 53.9919 96.4932 53.9269 97.1373 53.683C97.7976 53.4391 98.2726 52.9757 98.5625 52.2927L98.8523 51.6098L85.8086 12.4878H99.7219L105.712 38.4391H106.099L112.186 12.4878H126.196L112.669 53.0732C111.993 55.1383 111.01 56.9919 109.722 58.6342C108.45 60.2927 106.775 61.6017 104.698 62.561C102.62 63.5204 100.028 64.0001 96.9199 64.0001Z" fill="#AF8D6A"/>
<path opacity="0.2" d="M64.7676 50.634C60.8061 50.634 57.3922 49.8697 54.5258 48.3413C51.6755 46.7966 49.4774 44.5852 47.9315 41.7071C46.4017 38.8128 45.6367 35.3494 45.6367 31.3169C45.6367 27.4469 46.4097 24.0648 47.9557 21.1705C49.5016 18.2762 51.6836 16.0242 54.5017 14.4144C57.3198 12.8046 60.6451 11.9998 64.4777 11.9998C67.2797 11.9998 69.816 12.4388 72.0866 13.3168C74.3572 14.1949 76.2976 15.4713 77.908 17.1461C79.5183 18.8046 80.7583 20.8209 81.6279 23.1949C82.4974 25.5689 82.9322 28.2437 82.9322 31.2193V34.3413H49.7914V26.9266H70.6614C70.6453 25.8534 70.3716 24.9103 69.8401 24.0973C69.3248 23.2681 68.6243 22.6258 67.7387 22.1705C66.8691 21.699 65.8787 21.4632 64.7676 21.4632C63.6886 21.4632 62.6983 21.699 61.7965 22.1705C60.8947 22.6258 60.1701 23.2599 59.6226 24.0729C59.0912 24.886 58.8093 25.8372 58.7771 26.9266V34.9266C58.7771 36.1299 59.0267 37.203 59.5259 38.1461C60.0251 39.0892 60.7417 39.8291 61.6757 40.3657C62.6097 40.9022 63.737 41.1705 65.0574 41.1705C65.9753 41.1705 66.8127 41.0404 67.5696 40.7803C68.3426 40.5201 69.0028 40.1461 69.5503 39.6583C70.0978 39.1543 70.5004 38.5526 70.7581 37.8535H82.9322C82.5135 40.4551 81.5232 42.7152 79.9611 44.634C78.3991 46.5364 76.3299 48.0161 73.7533 49.073C71.1929 50.1136 68.1976 50.634 64.7676 50.634Z" fill="#AF8D6A"/>
<path opacity="0.2" d="M0 49.9513V0H21.4497C25.2179 0 28.3823 0.512197 30.9427 1.53659C33.5193 2.56098 35.4597 4.00814 36.7641 5.87806C38.0846 7.74798 38.7448 9.95123 38.7448 12.4878C38.7448 14.3252 38.3422 16 37.5371 17.5122C36.748 19.0244 35.6368 20.2927 34.2036 21.3171C32.7704 22.3252 31.0957 23.0244 29.1794 23.4147V23.9025C31.305 23.9838 33.2374 24.5285 34.9766 25.5366C36.7158 26.5285 38.1007 27.9025 39.1313 29.6586C40.1619 31.3984 40.6772 33.4472 40.6772 35.8049C40.6772 38.5366 39.9687 40.9675 38.5516 43.0976C37.1506 45.2277 35.1537 46.9025 32.5611 48.122C29.9684 49.3415 26.8766 49.9513 23.2855 49.9513H0ZM13.4302 39.122H19.7106C21.9651 39.122 23.6559 38.6992 24.7832 37.8537C25.9104 36.9919 26.474 35.7236 26.474 34.0488C26.474 32.8781 26.2083 31.8862 25.6769 31.0732C25.1455 30.2602 24.3886 29.6423 23.4063 29.2196C22.4401 28.7968 21.2726 28.5854 19.9038 28.5854H13.4302V39.122ZM13.4302 20.1952H18.9376C20.1132 20.1952 21.1518 20.0082 22.0536 19.6342C22.9554 19.2602 23.6559 18.7236 24.1551 18.0244C24.6704 17.309 24.9281 16.4391 24.9281 15.4147C24.9281 13.8699 24.3805 12.6911 23.2855 11.8781C22.1905 11.0488 20.8056 10.6342 19.1309 10.6342H13.4302V20.1952Z" fill="#AF8D6A"/>
</g>
<defs>
<clipPath id="clip0_4151_13165">
<rect width="512" height="64" fill="white"/>
</clipPath>
</defs>
</svg>
