<svg width="468" height="64" viewBox="0 0 468 64" fill="none" xmlns="http://www.w3.org/2000/svg">
<g clip-path="url(#clip0_4151_13164)">
<path opacity="0.2" d="M468 44.2649L467.807 46.847C467.646 49.0603 467.26 51.1813 466.649 53.2101C466.055 55.239 465.42 57.0372 464.744 58.605C464.085 60.1727 463.563 61.3869 463.177 62.2476H454.979C455.236 61.3869 455.597 60.142 456.064 58.5127C456.546 56.8989 456.98 55.0699 457.366 53.0257C457.768 50.9969 457.969 48.9373 457.969 46.847V44.2649H468Z" fill="#AF8D6A"/>
<path opacity="0.2" d="M447.653 26.8356H435.403C435.339 26.1133 435.073 25.4908 434.607 24.9682C434.141 24.4456 433.538 24.046 432.799 23.7694C432.075 23.4773 431.272 23.3313 430.387 23.3313C429.246 23.3313 428.265 23.5311 427.446 23.9307C426.626 24.3304 426.224 24.899 426.24 25.6368C426.224 26.1594 426.457 26.6435 426.939 27.0893C427.438 27.535 428.394 27.8808 429.809 28.1267L437.332 29.4178C441.126 30.0787 443.947 31.193 445.796 32.7607C447.661 34.3131 448.601 36.3957 448.617 39.0086C448.601 41.5292 447.813 43.7194 446.254 45.5792C444.711 47.4236 442.597 48.853 439.912 49.8674C437.244 50.8664 434.197 51.3659 430.773 51.3659C425.115 51.3659 420.686 50.2593 417.487 48.0461C414.304 45.8328 412.527 42.9125 412.158 39.2852H425.372C425.549 40.4072 426.127 41.2756 427.108 41.8904C428.105 42.4898 429.359 42.7896 430.87 42.7896C432.091 42.7896 433.096 42.5898 433.884 42.1901C434.688 41.7905 435.098 41.2218 435.114 40.4841C435.098 39.8078 434.744 39.2699 434.053 38.8702C433.377 38.4706 432.316 38.1479 430.87 37.9019L424.311 36.7953C420.533 36.1652 417.704 34.9663 415.823 33.1988C413.942 31.4312 413.01 29.1565 413.026 26.3746C413.01 23.9154 413.685 21.8328 415.051 20.1267C416.434 18.4053 418.403 17.0988 420.959 16.2074C423.531 15.3006 426.578 14.8472 430.098 14.8472C435.451 14.8472 439.671 15.9077 442.758 18.0287C445.86 20.1498 447.492 23.0854 447.653 26.8356Z" fill="#AF8D6A"/>
<path opacity="0.2" d="M407.406 15.3084V24.5303H383.003V15.3084H407.406ZM387.729 6.82422H401.04V39.3315C401.04 39.8233 401.128 40.2383 401.305 40.5764C401.482 40.8992 401.755 41.1451 402.125 41.3142C402.495 41.4679 402.969 41.5447 403.547 41.5447C403.949 41.5447 404.416 41.4986 404.946 41.4064C405.493 41.3142 405.895 41.2373 406.152 41.1758L408.081 50.1211C407.486 50.2902 406.634 50.4977 405.525 50.7436C404.432 50.9895 403.13 51.1509 401.618 51.2277C398.564 51.3814 396 51.0817 393.926 50.3286C391.853 49.5601 390.293 48.3536 389.248 46.709C388.203 45.0644 387.697 43.0049 387.729 40.5303V6.82422Z" fill="#AF8D6A"/>
<path opacity="0.2" d="M378.824 15.3083V24.5302H354.035V15.3083H378.824ZM358.761 50.7205V14.2939C358.761 11.3736 359.308 8.95289 360.401 7.03166C361.494 5.11043 363.037 3.67334 365.031 2.72041C367.024 1.76748 369.371 1.29102 372.072 1.29102C373.76 1.29102 375.4 1.41398 376.991 1.6599C378.599 1.90581 379.788 2.12099 380.56 2.30543L378.631 11.4351C378.149 11.2968 377.586 11.1892 376.943 11.1124C376.3 11.0201 375.737 10.974 375.255 10.974C374.001 10.974 373.157 11.2276 372.723 11.7348C372.289 12.242 372.072 12.9106 372.072 13.7406V50.7205H358.761Z" fill="#AF8D6A"/>
<path opacity="0.2" d="M335.189 50.7205V15.3084H348.5V50.7205H335.189ZM341.844 11.6196C340.044 11.6196 338.501 11.0509 337.214 9.91356C335.928 8.77619 335.285 7.40827 335.285 5.8098C335.285 4.21134 335.928 2.84342 337.214 1.70605C338.501 0.568684 340.044 0 341.844 0C343.661 0 345.204 0.568684 346.474 1.70605C347.76 2.84342 348.403 4.21134 348.403 5.8098C348.403 7.40827 347.76 8.77619 346.474 9.91356C345.204 11.0509 343.661 11.6196 341.844 11.6196Z" fill="#AF8D6A"/>
<path opacity="0.2" d="M310.936 19.0895C310.727 18.2749 310.397 17.5602 309.947 16.9454C309.497 16.3152 308.934 15.7849 308.259 15.3546C307.6 14.9089 306.828 14.5784 305.944 14.3632C305.076 14.1327 304.119 14.0174 303.075 14.0174C300.824 14.0174 298.903 14.5323 297.312 15.5621C295.736 16.5919 294.53 18.075 293.694 20.0116C292.875 21.9482 292.465 24.2845 292.465 27.0203C292.465 29.7869 292.859 32.1538 293.646 34.1212C294.434 36.0885 295.607 37.5948 297.167 38.6399C298.726 39.6851 300.663 40.2076 302.978 40.2076C305.02 40.2076 306.716 39.9233 308.066 39.3546C309.432 38.7859 310.453 37.979 311.128 36.9339C311.804 35.8887 312.141 34.6591 312.141 33.2451L314.456 33.4756H303.171V24.3459H325.066V30.8935C325.066 35.1971 324.109 38.8781 322.196 41.9367C320.3 44.98 317.679 47.3162 314.336 48.9454C311.008 50.5592 307.19 51.3662 302.882 51.3662C298.075 51.3662 293.855 50.3902 290.222 48.4382C286.589 46.4862 283.752 43.7043 281.71 40.0924C279.685 36.4804 278.672 32.1846 278.672 27.2047C278.672 23.3008 279.291 19.8426 280.529 16.8301C281.782 13.8176 283.519 11.2739 285.737 9.19895C287.956 7.10865 290.52 5.53324 293.429 4.47272C296.339 3.39683 299.458 2.85889 302.785 2.85889C305.711 2.85889 308.428 3.2585 310.936 4.05774C313.459 4.8416 315.686 5.9636 317.615 7.42373C319.56 8.8685 321.127 10.5822 322.317 12.565C323.507 14.5477 324.23 16.7225 324.487 19.0895H310.936Z" fill="#AF8D6A"/>
<path opacity="0.2" d="M232.455 51.1817C229.819 51.1817 227.391 50.5208 225.173 49.199C222.97 47.8772 221.202 45.8714 219.868 43.1817C218.55 40.492 217.891 37.1029 217.891 33.0145C217.891 28.7417 218.582 25.2681 219.964 22.5938C221.363 19.9194 223.163 17.9597 225.366 16.7148C227.584 15.4698 229.915 14.8473 232.359 14.8473C234.191 14.8473 235.799 15.1547 237.181 15.7695C238.564 16.369 239.721 17.1759 240.654 18.1903C241.586 19.1893 242.293 20.2883 242.776 21.4871H242.969V3.50439H256.279V50.7206H243.065V44.9108H242.776C242.261 46.1096 241.522 47.1855 240.557 48.1385C239.609 49.076 238.451 49.8215 237.085 50.3748C235.734 50.9127 234.191 51.1817 232.455 51.1817ZM237.374 41.4065C238.596 41.4065 239.641 41.0683 240.509 40.3921C241.393 39.7004 242.068 38.7321 242.534 37.4871C243.017 36.2268 243.258 34.7359 243.258 33.0145C243.258 31.2624 243.017 29.7638 242.534 28.5188C242.068 27.2585 241.393 26.2979 240.509 25.637C239.641 24.9607 238.596 24.6226 237.374 24.6226C236.152 24.6226 235.108 24.9607 234.239 25.637C233.387 26.2979 232.728 27.2585 232.262 28.5188C231.812 29.7638 231.587 31.2624 231.587 33.0145C231.587 34.7667 231.812 36.2729 232.262 37.5333C232.728 38.7782 233.387 39.7388 234.239 40.4151C235.108 41.076 236.152 41.4065 237.374 41.4065Z" fill="#AF8D6A"/>
<path opacity="0.2" d="M187.102 30.8011V50.7204H173.792V15.3083H186.427V22.0403H186.813C187.616 19.7963 189.031 18.0364 191.057 16.7607C193.098 15.485 195.477 14.8472 198.194 14.8472C200.815 14.8472 203.089 15.4235 205.018 16.5763C206.963 17.7136 208.466 19.2814 209.527 21.2794C210.605 23.2775 211.135 25.56 211.119 28.1267V50.7204H197.808V30.8011C197.824 29.0489 197.358 27.6733 196.41 26.6743C195.477 25.6752 194.175 25.1757 192.503 25.1757C191.41 25.1757 190.454 25.4063 189.634 25.8674C188.83 26.3131 188.211 26.9586 187.777 27.804C187.343 28.6339 187.118 29.633 187.102 30.8011Z" fill="#AF8D6A"/>
<path opacity="0.2" d="M147.838 51.3659C143.819 51.3659 140.379 50.6051 137.517 49.0835C134.656 47.5465 132.462 45.4101 130.934 42.6743C129.407 39.9231 128.644 36.7338 128.644 33.1066C128.644 29.4793 129.407 26.2977 130.934 23.5619C132.462 20.8107 134.656 18.6743 137.517 17.1526C140.379 15.6157 143.819 14.8472 147.838 14.8472C151.857 14.8472 155.297 15.6157 158.158 17.1526C161.02 18.6743 163.214 20.8107 164.741 23.5619C166.268 26.2977 167.032 29.4793 167.032 33.1066C167.032 36.7338 166.268 39.9231 164.741 42.6743C163.214 45.4101 161.02 47.5465 158.158 49.0835C155.297 50.6051 151.857 51.3659 147.838 51.3659ZM147.934 41.9596C149.06 41.9596 150.032 41.5984 150.852 40.876C151.672 40.1536 152.307 39.1238 152.757 37.7867C153.207 36.4495 153.432 34.8587 153.432 33.0143C153.432 31.1546 153.207 29.5638 152.757 28.242C152.307 26.9048 151.672 25.875 150.852 25.1527C150.032 24.4303 149.06 24.0691 147.934 24.0691C146.745 24.0691 145.724 24.4303 144.872 25.1527C144.02 25.875 143.369 26.9048 142.919 28.242C142.469 29.5638 142.243 31.1546 142.243 33.0143C142.243 34.8587 142.469 36.4495 142.919 37.7867C143.369 39.1238 144.02 40.1536 144.872 40.876C145.724 41.5984 146.745 41.9596 147.934 41.9596Z" fill="#AF8D6A"/>
<path opacity="0.2" d="M96.7523 64.0001C95.2251 64.0001 93.7703 63.8848 92.3878 63.6542C91.0053 63.4391 89.7916 63.1393 88.7467 62.7551L91.6403 53.7176C92.7334 54.0865 93.7301 54.3247 94.6303 54.4323C95.5466 54.5399 96.3263 54.4784 96.9693 54.2479C97.6284 54.0173 98.1026 53.5793 98.392 52.9338L98.6814 52.2882L85.6602 15.3083H99.5494L105.53 39.8386H105.915L111.992 15.3083H125.978L112.474 53.6715C111.799 55.6235 110.818 57.3756 109.532 58.928C108.262 60.4957 106.591 61.733 104.517 62.6398C102.443 63.5466 99.8549 64.0001 96.7523 64.0001Z" fill="#AF8D6A"/>
<path opacity="0.2" d="M64.6554 51.3659C60.7008 51.3659 57.2928 50.6436 54.4313 49.1988C51.586 47.7387 49.3916 45.6484 47.8484 42.9279C46.3212 40.1921 45.5576 36.9183 45.5576 33.1066C45.5576 29.4485 46.3292 26.2516 47.8725 23.5158C49.4158 20.7799 51.594 18.6512 54.4072 17.1296C57.2204 15.608 60.54 14.8472 64.366 14.8472C67.1632 14.8472 69.6951 15.2622 71.9617 16.0921C74.2284 16.9221 76.1655 18.1286 77.773 19.7117C79.3806 21.2795 80.6184 23.1853 81.4865 25.4293C82.3546 27.6733 82.7886 30.2016 82.7886 33.0143V35.9653H49.7051V28.9567H70.539C70.523 27.9423 70.2497 27.0508 69.7192 26.2823C69.2048 25.4985 68.5055 24.8914 67.6213 24.461C66.7532 24.0153 65.7646 23.7924 64.6554 23.7924C63.5783 23.7924 62.5897 24.0153 61.6894 24.461C60.7892 24.8914 60.0658 25.4908 59.5192 26.2593C58.9887 27.0278 58.7074 27.9269 58.6753 28.9567V36.5187C58.6753 37.656 58.9244 38.6704 59.4228 39.5619C59.9211 40.4533 60.6365 41.1527 61.5689 41.6599C62.5013 42.1671 63.6266 42.4207 64.9447 42.4207C65.8611 42.4207 66.697 42.2977 67.4525 42.0518C68.2242 41.8059 68.8833 41.4524 69.4298 40.9913C69.9764 40.5148 70.3783 39.9461 70.6355 39.2852H82.7886C82.3707 41.7444 81.382 43.8808 79.8227 45.6945C78.2633 47.4927 76.1976 48.8914 73.6255 49.8904C71.0695 50.8741 68.0795 51.3659 64.6554 51.3659Z" fill="#AF8D6A"/>
<path opacity="0.2" d="M0 50.7206V3.50439H21.4127C25.1743 3.50439 28.3332 3.98855 30.8892 4.95685C33.4613 5.92515 35.3984 7.29306 36.7005 9.0606C38.0187 10.8281 38.6778 12.9107 38.6778 15.3084C38.6778 17.0452 38.2759 18.6283 37.4721 20.0577C36.6844 21.4871 35.5752 22.686 34.1445 23.6543C32.7138 24.6072 31.0419 25.2681 29.1289 25.637V26.0981C31.2509 26.1749 33.18 26.6898 34.9161 27.6428C36.6523 28.5803 38.0348 29.8791 39.0636 31.539C40.0925 33.1836 40.6069 35.1202 40.6069 37.3488C40.6069 39.9309 39.8996 42.2287 38.4849 44.2422C37.0863 46.2556 35.093 47.8387 32.5048 48.9915C29.9166 50.1442 26.8301 50.7206 23.2453 50.7206H0ZM13.407 40.4843H19.6765C21.9271 40.4843 23.615 40.0846 24.7403 39.2854C25.8656 38.4708 26.4282 37.272 26.4282 35.6889C26.4282 34.5822 26.163 33.6447 25.6325 32.8762C25.102 32.1077 24.3464 31.5236 23.3658 31.124C22.4013 30.7244 21.2358 30.5246 19.8694 30.5246H13.407V40.4843ZM13.407 22.5938H18.9049C20.0784 22.5938 21.1153 22.417 22.0155 22.0635C22.9157 21.71 23.615 21.2028 24.1133 20.5419C24.6278 19.8656 24.885 19.0433 24.885 18.075C24.885 16.6149 24.3384 15.5006 23.2453 14.7321C22.1521 13.9482 20.7696 13.5563 19.0978 13.5563H13.407V22.5938Z" fill="#AF8D6A"/>
</g>
<defs>
<clipPath id="clip0_4151_13164">
<rect width="468" height="64" fill="white"/>
</clipPath>
</defs>
</svg>
