<svg width="320" height="180" viewBox="0 0 320 180" fill="none" xmlns="http://www.w3.org/2000/svg">
<path d="M153.802 21.0002C149.068 24.5755 150.649 37.9157 151.22 43.1506C149.303 46.0296 147.582 48.5851 145.903 51.5989C142.932 50.2572 134.203 47.3263 131.173 48.2258L130.974 48.4192C131.386 49.3538 136.784 50.4162 137.932 50.7659C140.371 51.5093 142.873 52.2228 145.252 53.1506C144.055 55.5737 142.711 58.2554 141.844 60.8137C138.423 60.5016 120.642 59.6447 119 62.7122C119.207 63.5517 122.568 63.3251 123.414 63.2834C129.367 62.9905 135.246 62.5597 141.204 63.0149C140.783 64.6949 139.612 70.0097 140.282 71.4231C141.874 72.2416 144.473 64.4665 144.933 63.1262C147.439 63.4108 149.878 63.7866 152.352 64.2102C153.661 64.4343 159.029 65.481 159.881 64.8293C159.329 63.0177 147.883 61.4407 145.669 61.0881C146.494 58.7444 147.386 56.6983 148.399 54.426C152.369 55.9067 157.038 59.4782 161.197 61.1809C158.716 57.9694 152.989 54.674 149.292 52.8596C151.267 48.4867 154.169 44.1111 157.426 40.6047C158.375 39.5833 160.801 37.2456 161.439 36.2668C160.667 32.9266 157.295 26.7861 155.125 24.094C157.884 25.9423 160.591 27.7221 163.229 29.7473C164.284 30.5564 165.548 31.4142 166.518 32.3137C167.693 31.5212 168.435 31.463 169.836 31.1594C169.48 32.1022 168.296 34.9278 169.57 35.512C171.297 35.417 172.346 32.0645 172.751 30.6829L174.613 30.6321C174 31.8407 172.935 33.7346 174.221 34.8752C175.505 35.1334 176.849 31.6 177.383 30.5481C178.209 30.5759 178.997 30.5968 179.82 30.676C179.022 31.705 177.444 33.859 178.173 35.1985C179.815 36.2711 181.724 31.9869 182.181 30.8606C183.445 31.1126 184.825 31.3596 186.068 31.6692L186.027 31.717C185.317 32.5411 183.606 34.5248 183.888 35.5969C185.062 36.4545 187.613 33.245 188.275 32.3811C189.592 32.7403 192.088 33.4572 192.952 34.5042C193.491 34.4853 198.596 32.322 199.805 31.9622C202.84 31.0583 205.913 29.7986 209.039 29.0754C208.993 33.2192 208.781 42.5618 207.331 46.3879C208.055 48.9951 209.498 51.6967 210.67 54.1409C213.004 59.0108 216.592 64.061 220.246 68.0276C224.002 72.1044 228.895 76.2908 233.032 79.9963C245.44 91.1089 253.682 100.426 254.365 117.92C254.652 125.279 253.834 131.417 250.213 138.106C249.129 140.107 247.872 141.716 246.446 143.469C243.404 147.211 238.91 150.391 240.528 155.807C240.84 156.85 241.578 158.638 241.456 159.594C240.327 161.457 236.336 162.7 234.295 163.205C228.266 164.698 221.91 164.856 215.729 164.777C214.974 164.767 213.415 164.737 212.674 164.536C212.495 164.488 212.489 164.333 212.436 164.154C212.75 162.399 214.774 161.353 214.682 160.074C214.475 159.811 214.385 159.697 214.017 159.658C211.071 159.349 210.159 161.796 210.058 164.186L208.268 163.982L208.266 163.928C208.251 163.555 208.207 162.432 208.271 162.25C209.039 160.107 209.53 161.043 209.499 158.727C212.238 157.141 225.039 157.874 225.777 155.28C225.89 154.882 225.87 154.525 225.667 154.163C224.502 153.337 222.734 153.276 221.483 152.582C208.592 145.434 210.729 128.08 218.094 117.695C218.664 116.891 221.101 114.072 220.88 113.189C220.034 112.889 218.184 114.533 217.575 115.098C209.813 122.305 206.694 131.704 208.327 142.086C205.199 139.812 200.673 136.959 197.014 135.673C197.381 133.672 198.592 126.624 197.506 125.07L197.294 125.039C196.139 126.938 195.049 132.112 194.404 134.408C192.723 140.397 188.097 155.832 184.344 160.26C183.654 161.073 182.879 161.593 181.839 161.864C180.696 162.16 179.397 162.128 178.224 162.098H178.22C178.485 161.164 179.354 158.839 178.175 158.359C176.696 158.605 176.126 160.852 176.077 162.105C175.47 161.964 174.817 161.872 174.312 161.535C173.499 160.05 176.15 158.301 175.98 156.925C174.563 155.172 172.218 159.541 171.648 159.877C171.488 159.565 171.704 158.514 171.825 158.179C172.762 155.59 175.058 154.925 177.546 154.759C179.097 154.655 180.449 154.052 179.084 152.455C179.239 151.532 179.797 150.607 179.949 149.753C181.526 140.911 181.299 131.434 178.963 122.746C178.677 121.683 178.026 119.114 177.01 118.765C176.58 118.904 176.758 118.787 176.462 119.138C176.14 120.628 177.14 127.44 177.231 129.48C174.161 134.386 169.802 137.505 166.282 141.552C165.438 142.522 168.395 148.888 164.228 152.902C163.274 152.093 161.216 150.045 160.22 149.877C159.815 150.033 159.969 149.9 159.767 150.316C159.768 152.044 161.253 152.995 162.656 153.63C161.643 154.345 159.533 152.699 159.004 151.811C157.308 148.964 157.177 145.398 157.804 142.216C158.141 138.95 159.811 137.283 161.3 134.561C163.418 130.688 165.066 126.567 165.297 122.106C165.52 117.802 163.997 119.293 163.552 118.672C161.013 115.127 161.499 109.254 162.882 105.323C163.241 104.201 164.211 102.074 163.697 101.061C162.384 100.466 159.226 105.41 158.487 106.475C158.666 103.384 159.523 100.718 160.214 97.7502C160.305 97.3584 160.142 96.9372 159.882 96.634C158.738 96.1868 156.953 98.5307 156.022 99.3108C157.118 96.679 162.243 85.6955 158.232 82.7502C157.107 82.3027 155.609 84.0281 155.436 84.97C155.213 86.1761 155.196 87.7237 155.212 88.9583C155.264 93.0907 154.491 96.9486 152.564 100.634C152.234 101.266 150.699 102.721 151.064 103.52C152.106 104.968 155.401 102.911 156.271 102.189C156.006 104.247 155.708 106.395 155.725 108.467C155.732 109.37 155.781 112.149 156.952 112.283C157.883 112.391 159.101 110.266 159.599 109.555C159.11 112.97 159.972 114.937 160.592 118.243C160.918 120.157 160.991 122.181 160.733 124.104C159.586 132.679 152.185 138.892 153.189 148C153.635 152.038 156.021 156.443 160.418 157.166C162.692 157.54 165.14 156.632 166.934 155.3C170.958 152.357 171.318 147.443 169.589 143.05C172.74 140.946 175.144 138.711 177.592 135.808C177.731 141.351 176.788 146.751 176.231 152.187C173.433 152.733 171.566 153.479 169.855 155.791C168.063 158.213 167.8 162.167 170.642 163.862C173.883 165.794 179.427 166.27 183.058 165.596C185.375 165.165 187.212 163.741 188.371 161.758C192.501 154.847 194.765 146.267 196.573 138.53C201.241 140.963 205.863 143.561 209.795 147.204C210.481 147.84 211.329 149.478 212.065 150.397C213.454 152.129 214.942 153.103 216.395 154.531L216.175 154.53C210.678 154.474 202.319 154.389 202.072 161.818C202.067 168.993 214.906 168.994 219.805 168.916C227.978 168.786 238.434 167.772 244.796 162.162C249.436 158.071 243.3 154.793 247.596 150.736C260.951 143.116 261.604 124.026 260.261 115.433C260.261 115.433 259.938 108.121 259.99 105.367C260.086 100.35 260.89 94.7752 263.064 90.2239C265.739 84.5645 270.208 80.5608 276.101 78.4446C286.59 74.6774 298.968 78.0077 308.327 70.9338C310.878 69.0056 311.802 67.2857 312.505 64.2542V62.1594C310.249 54.6194 303.202 50.9381 296.06 49.2678C275.65 44.4945 258.145 58.0132 251.3 76.6174C249.722 80.9046 248.753 84.7145 247.739 89.1438C244.524 85.7836 241.222 82.717 237.687 79.6858C231.889 74.7152 225.547 69.8932 220.925 63.7532C218.363 60.3496 216.321 56.1059 214.45 52.2864C213.308 49.9548 212.049 47.4514 211.024 45.092C211.996 40.8403 212.607 32.2615 211.21 28.1106C211.029 27.5723 210.715 26.981 210.177 26.7297C208.642 26.0148 199.391 28.9759 197.453 29.7473L192.952 31.6692C184.144 26.2537 171.377 27.2684 166.518 28.6223L159.669 23.4729C157.909 22.4459 155.819 21.3697 153.802 21.0002ZM289.299 52.3782C288.559 52.953 286.967 54.1083 286.811 55.0325C287.455 55.7902 291.324 53.2026 292.04 52.6575C296.89 53.1951 302.784 54.7892 306.114 58.6301C308 60.8048 309.201 65.2641 306.562 67.3538C304.742 68.7939 299.938 67.4167 297.966 66.7942C297.257 66.5706 294.928 65.5782 294.611 66.5745C295.086 68.4982 300.383 69.7053 302.104 70.0305C300.679 70.5902 298.375 71.346 296.802 71.259C294.667 71.1409 288.217 67.0465 286.506 68.5188C285.855 70.1184 290.547 71.6132 291.609 72.1331L286.108 72.5002C285.047 71.7873 283.162 70.3078 281.938 70.3713C281.097 70.9974 282.286 72.2263 282.755 72.8303C281.7 73.0611 280.639 73.2841 279.578 73.4875C272.651 74.8155 266.078 78.1109 262.011 84.0745C258.219 89.568 256.481 95.4567 255.961 102.057L255.903 101.958C255.353 101.01 254.896 99.9197 254.364 98.9377C253.156 96.7071 251.821 94.5181 250.254 92.5208C252.285 79.7394 258.307 66.8203 268.989 59.0667C270.251 58.1507 271.546 57.3622 272.883 56.5627C271.954 57.6767 269.342 61.4202 270.232 62.9016C270.476 62.9391 270.49 62.9394 270.683 62.7991C270.967 62.5917 276.864 55.2955 277.468 54.4153C278.728 53.9398 280.01 53.5497 281.315 53.2161C280.744 53.8319 278.955 56.1276 278.924 56.8928C279.663 57.7401 284.288 53.3132 285.015 52.552C286.613 52.3421 287.685 52.3242 289.299 52.3782Z" fill="#002E4E"/>
<path d="M125.281 166.979C123.601 167.045 122.998 166.915 121.614 167.918C122.923 170.513 123.726 171.698 124.837 174.516C124.868 172.45 125.012 168.961 125.281 166.979Z" fill="#C3CFA8"/>
<path d="M210.459 61.5161C210.171 61.6142 210.194 61.6258 210.011 61.8769C209.988 62.6042 210.897 63.5907 211.37 64.1488C213.31 66.4387 214.824 68.8636 216.007 71.6204C206.094 68.8274 197.129 66.668 186.677 66.2587C186.072 66.235 185.667 66.2184 185.22 66.6336C185.076 67.3085 185.724 67.6686 186.306 67.7216C194.337 68.4521 202.395 69.7131 210.189 71.8077L211.233 72.1055C212.521 75.5315 213.514 78.7423 214.392 82.2963C214.467 82.5988 214.601 82.8507 214.841 83.0533C216.614 83.2839 216.251 79.5033 216.064 78.4323C215.667 76.1511 214.515 74.3326 213.167 72.5056C214.429 72.9609 215.67 73.4011 216.942 73.8293C217.246 74.7241 218.621 79.8932 219.93 78.9893C220.542 77.8942 220.394 76.1276 220.316 74.9251C221.583 75.429 223.26 76.2225 224.593 76.1019L224.799 75.8146C224.189 74.5126 221.13 73.4744 219.819 72.9454C218.165 68.3701 215.436 63.0733 210.459 61.5161Z" fill="#002E4E"/>
<path d="M172.017 59.6144C170.545 59.521 167.769 59.529 167.549 61.381C167.236 64.028 169.872 65.0655 171.113 66.9332C168.661 72.378 167.132 67.8915 165.923 68.4578C165.592 69.7155 167.104 71.4441 168.428 71.4545C169.935 71.4661 170.701 70.8472 171.763 69.9408C172.003 70.4905 172.223 70.8254 172.537 71.3268C174.479 73.403 178.129 72.309 177.337 69.86C176.321 69.334 175.005 71.9642 173.766 70.3633C173.217 70.0107 172.575 67.5553 173.234 67.1403C174.2 66.4493 176.201 66.2515 177.045 65.3225C181.113 60.8449 174.638 59.8429 172.017 59.6144Z" fill="#002E4E"/>
<path d="M205.473 33.0903C202.671 33.3462 197.69 35.3477 195.932 37.573C194.427 39.4764 196.231 40.8931 197.639 41.9003C198.488 42.4487 201.342 44.4186 202.178 43.2813C203.58 41.375 206.185 36.1152 206.193 33.8597C206.052 33.4718 205.805 33.3457 205.473 33.0903Z" fill="#002E4E"/>
<path d="M185.367 69.6809C184.892 69.6759 184.62 69.7059 184.326 70.081C184.293 70.7701 185.364 71.5631 185.924 71.8577C193.221 75.6995 200.377 79.5521 207.447 83.8139C207.451 84.7827 207.509 88.6336 209.077 88.302C209.797 87.7047 209.833 87.0653 210.074 86.1332C210.473 83.5193 209.992 80.1698 207.932 78.3127C207.445 78.1843 207.666 78.159 207.241 78.3338C206.813 78.935 207.177 80.9599 207.247 81.798C203.323 79.3779 199.154 76.9528 195.159 74.6554C192.329 73.0279 188.373 70.8852 185.367 69.6809Z" fill="#002E4E"/>
<path d="M190.626 55.9032C189.422 55.5365 188.114 55.8488 187.205 56.7201C186.297 57.5915 185.93 58.8855 186.246 60.104C186.562 61.3225 187.512 62.2749 188.729 62.5947C190.562 63.0757 192.442 62.0017 192.959 60.1791C193.475 58.3563 192.438 56.4552 190.626 55.9032Z" fill="#002E4E"/>
<path d="M163.597 51.2916C158.945 51.0876 158.826 56.9365 162.685 58.5863C166.904 58.5731 167.775 52.8374 163.597 51.2916Z" fill="#002E4E"/>
<path d="M152.074 71.3889C148.288 71.0161 145.283 78.4868 147.298 81.846C147.794 82.3304 148.168 82.5517 148.829 82.2838C149.514 81.4648 149.408 80.308 149.706 79.2101C150.235 77.2596 151.178 75.6332 151.877 73.7729C152.212 72.8813 152.464 72.2498 152.074 71.3889Z" fill="#002E4E"/>
<path d="M147.796 65.6338C145.445 65.8088 143.495 69.7574 142.943 71.7587C142.361 73.8727 142.235 75.7868 143.317 77.7557C143.681 78.1206 143.752 78.2433 144.217 78.4165C144.906 78.2203 145.06 77.1236 145.037 76.5097C144.943 74.0145 148.326 67.3519 147.796 65.6338Z" fill="#002E4E"/>
<path d="M165.535 106.291C163.834 106.765 163.866 109.936 163.89 111.352C163.922 113.204 164.393 114.753 165.362 116.315C165.745 116.66 165.536 116.581 165.968 116.667C167.202 115.823 166.079 109.444 166.101 107.86C166.107 107.373 165.796 106.709 165.535 106.291Z" fill="#002E4E"/>
<path d="M170.598 109.836C167.856 110.185 169.874 118.031 171.42 119.711C171.724 119.845 171.702 119.837 172.035 119.834C172.222 119.711 172.406 119.634 172.46 119.386C172.829 117.692 171.183 111.105 170.598 109.836Z" fill="#002E4E"/>
<path d="M155.378 77.6726C151.994 78.1417 150.221 82.0478 151.235 85.202C151.748 85.4091 152.254 85.3509 152.568 84.9031C153.431 83.6717 155.424 78.9437 155.378 77.6726Z" fill="#002E4E"/>
<path d="M239.85 110.769C239.291 110.724 239.137 110.666 238.916 111.211C239.034 111.95 239.451 112.498 239.941 113.05C241.653 114.977 243.226 115.733 245.738 115.931C245.961 115.902 246.158 115.854 246.378 115.808C246.725 115.499 246.626 115.685 246.701 115.243C246.298 114.083 241.258 111.601 239.85 110.769Z" fill="#002E4E"/>
<path d="M182.842 87.7077C181.525 87.648 181.504 88.8738 181.781 89.8335C182.471 92.2238 183.701 94.0045 185.864 95.2505C186.359 95.4324 186.537 95.5953 186.857 95.1444C186.801 94.2469 183.59 88.427 182.842 87.7077Z" fill="#002E4E"/>
<path d="M225.851 127.875C225.246 128.066 224.932 129.177 224.94 129.744C224.977 132.401 225.689 134.916 227.424 136.938L227.786 136.985C229.219 136.081 226.846 129.174 225.851 127.875Z" fill="#002E4E"/>
<path d="M196.824 102.283C195.775 102.642 196.157 104.357 196.491 105.11C197.386 107.129 198.871 109.184 200.939 110.073C202.221 109.528 200.949 107.844 200.408 107.101C199.233 105.485 198.009 103.893 196.824 102.283Z" fill="#002E4E"/>
<path d="M236.358 113.52C235.144 114.192 235.468 115.517 236.056 116.518C237.097 118.288 238.789 119.676 240.781 120.207C241.293 120.124 241.098 120.243 241.416 119.898C241.55 118.943 237.208 114.265 236.358 113.52Z" fill="#002E4E"/>
<path d="M193.902 86.5781C191.871 87.8781 195.108 92.5405 196.751 93.4426C197.765 92.9109 197.617 91.6376 197.293 90.7211C196.655 88.9111 195.641 87.4399 193.902 86.5781Z" fill="#002E4E"/>
<path d="M233.741 90.2734L233.338 90.4221C233.231 90.5562 232.981 90.7986 233.016 90.9527C233.546 93.327 237.231 95.0568 239.264 95.1756C239.793 94.9459 239.952 94.9193 240.013 94.3222C239.547 93.0466 235.158 91.016 233.741 90.2734Z" fill="#002E4E"/>
<path d="M202.761 82.9307C201.239 83.8088 201.407 90.054 203.387 90.7421C205.26 89.1687 204.493 84.5302 202.761 82.9307Z" fill="#002E4E"/>
<path d="M200.236 99.1558C199.757 99.1913 199.708 99.3606 199.513 99.7442C199.522 101.004 201.051 102.525 202.058 103.213C203.137 103.95 204.088 104.227 205.372 104.351L205.788 104.128C206.033 103.718 205.984 103.93 205.972 103.478C205.471 102.458 201.332 99.7476 200.236 99.1558Z" fill="#002E4E"/>
<path d="M221.905 127.656L221.443 127.759C219.654 129.224 220.692 133.752 221.869 135.495C222.15 135.701 222.125 135.703 222.469 135.731C223.553 134.873 222.603 128.72 221.905 127.656Z" fill="#002E4E"/>
<path d="M229.679 91.3604L229.361 91.4016C228.286 92.4047 230.326 94.7973 231.14 95.5475C232.053 96.39 232.753 96.7683 233.959 97.0212L234.305 96.8771C234.945 95.6618 230.624 92.0227 229.679 91.3604Z" fill="#002E4E"/>
<path d="M171.362 88.0579L171.163 88.2363C170.274 90.3692 172.361 93.4073 174.064 94.6242L174.346 94.5088C175.077 93.2616 172.531 88.8734 171.362 88.0579Z" fill="#002E4E"/>
<path d="M192.848 103.555C192.485 103.56 192.5 103.541 192.184 103.709C191.261 104.963 193.138 107.896 194.149 108.758C194.655 108.705 194.572 108.789 194.912 108.521C195.423 107.301 193.711 104.355 192.848 103.555Z" fill="#002E4E"/>
<path d="M40.1506 9.5283C41.5719 8.92047 43.1753 8.55149 44.7057 8.95692C45.8944 9.27199 46.7274 10.0713 47.3226 11.1121C50.0074 15.8048 47.8181 22.3326 46.5115 27.1282C47.4014 27.0932 48.2956 27.0533 49.1859 27.0648C52.3559 27.1059 55.845 28.006 58.0618 30.3717C59.2579 31.648 60.0008 33.3055 59.8379 35.0737C59.689 36.6883 58.7603 38.1088 57.4745 39.084C53.7319 41.9219 48.3792 41.3186 44.0543 40.7526C43.7562 42.9022 44.1257 45.0973 43.911 47.256C43.6128 50.2562 41.9484 54.9135 39.4675 56.7994C38.534 57.5084 37.4059 57.8565 36.2384 57.6742C34.7715 57.4452 33.5301 56.4176 32.7232 55.2283C30.4512 51.8783 30.7257 47.601 31.5045 43.8282C28.0349 44.3461 25.6249 46.0416 21.8345 45.6637C19.5787 45.439 17.2447 44.6521 15.8184 42.8203C14.8447 41.5696 14.4745 39.9711 14.7495 38.4122C15.1249 36.2831 16.5615 34.607 18.2955 33.3833C22.7501 30.2398 27.9208 30.2301 33.0968 31.0472C32.9241 30.881 32.7474 30.718 32.5758 30.5502C29.4098 27.4632 27.7125 28.2155 24.4809 26.4264C23.9109 26.1105 23.5138 25.849 23.3481 25.2248C23.6738 24.8803 24.0257 24.8225 24.4807 24.7644C27.5874 24.3671 30.4989 26.1512 32.8592 27.9243C31.3467 25.5766 28.8057 21.3158 29.3101 18.401L29.5767 18.3114C31.3359 19.4622 32.5995 23.3193 33.4952 25.2484C33.2511 23.1577 33.3358 21.2046 33.8403 19.1494C34.7872 15.2927 36.6449 11.6336 40.1506 9.5283ZM33.0371 33.3529C29.6626 33.2712 25.7839 33.1242 22.6035 34.4473C20.6528 35.3127 18.2838 36.3111 17.3761 38.3942C17.1135 38.9968 17.0358 39.6443 17.3152 40.2552C17.766 41.2413 19.0137 41.9405 20.0025 42.2742C22.9675 43.2747 27.2943 42.1938 30.1302 41.1219C31.4495 40.6233 32.8041 39.8754 34.1976 39.6294C34.8035 39.5221 35.1287 39.4793 35.5049 39.976C35.7202 43.8753 31.284 44.0094 34.695 52.3067C35.1391 53.0971 35.5602 54.0403 36.5273 54.2766C36.8859 54.3639 37.1728 54.3371 37.5169 54.1724C39.0164 53.4557 39.8842 50.3784 40.189 48.8519C40.6273 46.6534 40.8021 44.3397 40.7302 42.1047C37.3045 39.9062 35.0771 36.7904 33.0371 33.3529ZM42.9799 11.7041C42.2381 11.6872 41.4027 11.9379 40.7141 12.2039C37.8919 14.1526 36.6619 17.314 36.046 20.5567C35.572 23.0529 35.5873 25.5589 35.8266 28.0739C38.2334 31.4467 41.3451 33.906 43.3327 37.6582C46.8686 38.4343 52.2226 38.6324 55.4462 36.6461C55.6959 36.4919 55.9353 36.3226 56.1725 36.1505C56.6271 35.4362 56.9896 34.902 56.8438 34.0231C56.6402 32.7957 55.0787 31.3949 54.0416 30.8157C51.4243 29.3547 47.7858 29.5457 44.8948 29.8632C44.113 29.9492 43.0645 30.1949 42.2928 30.1157C41.7974 30.065 41.669 29.8662 41.3896 29.5192C41.4789 26.0051 46.7069 23.2353 45.4257 15.2877C45.2723 14.3376 45.0947 13.075 44.445 12.3309C44.0611 11.8915 43.5571 11.7173 42.9799 11.7041ZM35.2444 31.8835C35.5991 34.2658 38.9869 38.0933 40.9223 39.4636C40.9957 39.5156 41.0717 39.5647 41.1458 39.6153C40.5563 37.5172 37.3014 33.1275 35.5115 32.027C35.4258 31.9738 35.3333 31.9311 35.2444 31.8835Z" fill="#002E4E"/>
<path d="M88.0506 127.006C88.1823 127 88.1757 126.997 88.3322 127.006C89.648 127.084 90.938 127.799 91.8 128.776C93.9455 131.208 93.9884 135.011 93.7588 138.051C94.9048 136.562 96.1905 135.095 97.9845 134.39C99.0012 133.991 100.123 133.917 101.121 134.412C102.101 134.898 102.722 135.836 103.028 136.863C103.676 139.044 103.017 141.506 101.931 143.43C103.186 142.729 104.577 142.357 106.01 142.666C107.32 142.948 108.382 143.782 109.105 144.892C110.418 146.908 110.733 149.526 110.24 151.85C109.602 154.851 107.604 157.044 105.072 158.655C99.4256 162.247 93.0652 162.346 86.7345 160.965C80.5508 159.48 74.1125 155.887 70.1846 150.854C66.6113 146.276 64.4059 140.072 65.1411 134.241C65.4024 132.168 66.2473 130.26 67.9351 128.963C69.2826 127.927 70.8541 127.657 72.5007 127.89C77.2492 128.562 80.9582 132.129 83.7086 135.801C83.7683 133.597 83.7397 131.01 84.9361 129.064C85.6667 127.875 86.7267 127.306 88.0506 127.006Z" fill="#C3CFA8"/>
<path d="M94.4111 144.843C94.4243 144.897 94.4406 144.95 94.4507 145.004C94.5949 145.764 93.4874 147.57 93.1576 148.284C92.5064 149.694 91.8827 151.217 91.476 152.72C91.0396 154.333 91.3743 156.892 90.4034 158.209C90.0286 158.413 89.9823 158.355 89.5803 158.268C89.5694 158.253 89.5588 158.237 89.5477 158.221C89.4984 158.152 89.4479 158.083 89.4026 158.01C88.7924 157.033 89.2442 155.126 89.48 154.065C90.1284 151.145 91.7614 146.537 94.4111 144.843Z" fill="#002E4E"/>
<path d="M84.1973 144.839C84.3155 144.888 84.3781 144.908 84.4833 144.967C85.3516 145.449 85.7759 146.793 86.0085 147.705C86.4945 149.612 87.1347 156.193 86.2192 157.758C86.1278 157.827 85.9745 157.952 85.8695 157.99C85.5629 158.101 85.4139 157.993 85.1616 157.849C84.2898 156.461 84.9865 151.689 84.8742 149.817C84.7734 148.137 84.4896 146.493 84.1973 144.839Z" fill="#002E4E"/>
<path d="M75.6602 143.177C75.9837 143.167 76.2519 143.239 76.553 143.348C78.6364 144.107 80.1774 146.12 81.1043 148.058C82.2666 150.488 82.956 154.273 82.0443 156.872C81.9244 156.886 81.6786 156.932 81.5511 156.904C81.2576 156.84 81.1298 156.709 81.0176 156.436C80.6835 155.623 80.9032 152.435 80.6651 151.151C80.2342 148.829 78.9958 146.438 77.3578 144.737C76.8814 144.243 76.1437 143.861 75.755 143.315C75.7225 143.27 75.6918 143.223 75.6602 143.177Z" fill="#002E4E"/>
<path d="M99.6657 152.712C99.773 152.817 99.825 152.923 99.8979 153.056C99.7829 153.695 98.7807 154.024 98.266 154.314C96.7212 155.181 95.6037 156.3 94.528 157.729C94.1074 158.287 93.7125 158.884 93.197 159.353C93.0536 159.226 92.9967 159.116 92.9176 158.938C92.9114 158.453 93.2297 157.928 93.4454 157.5C94.7312 154.946 97.151 153.604 99.6657 152.712Z" fill="#002E4E"/>
<path d="M123.719 105C125.115 105.912 126.185 107.776 126.816 109.282C127.741 111.489 129.159 117.16 128.244 119.432C128.14 119.43 128.055 119.432 127.95 119.412C127.606 119.346 127.341 119.279 127.162 118.958C126.164 117.169 125.909 111.866 125.205 109.529C124.815 108.236 123.408 106.281 123.719 105Z" fill="#002E4E"/>
<path d="M119.056 112.096C119.108 112.108 119.161 112.117 119.213 112.133C120.641 112.576 121.995 114.353 122.718 115.595C123.519 116.969 124.336 119.034 123.917 120.632C123.782 120.631 123.564 120.635 123.437 120.61C123.059 120.538 122.872 120.365 122.697 120.037C122.054 118.826 121.817 117.38 121.224 116.136C120.695 115.027 119.821 114.079 119.199 113.022C118.974 112.64 118.961 112.53 119.056 112.096Z" fill="#002E4E"/>
<path d="M134.554 107.604L134.719 107.692C134.845 108.12 134.198 109.076 134.031 109.566C133.545 110.992 133.256 115.112 132.803 115.797C132.536 116.2 132.334 116.201 131.904 116.333C131.789 116.185 131.672 116.041 131.589 115.871C131.019 114.695 131.402 112.613 131.752 111.408C132.235 109.743 132.99 108.451 134.554 107.604Z" fill="#002E4E"/>
<path d="M290.938 143C291.275 143.088 291.317 143.074 291.526 143.345C291.264 144.639 290.464 145.992 289.955 147.226C288.677 150.322 288.07 153.066 287.79 156.404C287.698 157.511 287.817 161.132 287.223 161.905C286.932 162.282 286.467 162.298 286.029 162.368C285.347 161.638 285.292 160.905 285.288 159.945C285.266 154.832 287.34 146.661 290.938 143Z" fill="#002E4E"/>
<path d="M301.169 150.405C301.478 150.542 301.5 150.526 301.641 150.828C301.02 152.51 298.117 153.89 296.997 155.433C296.32 156.367 295.733 157.482 295.307 158.551C294.895 159.586 294.562 161.1 293.869 161.972C293.526 162.403 293.17 162.44 292.662 162.483C292.446 162.266 292.295 162.111 292.171 161.822C291.717 160.771 292.283 159.193 292.714 158.198C294.258 154.633 297.58 151.823 301.169 150.405Z" fill="#002E4E"/>
<path d="M276.554 152.633C276.755 152.679 276.92 152.737 277.095 152.847C279.507 154.361 281.977 157.966 282.618 160.731C282.812 161.566 282.876 162.009 282.415 162.745C282.305 162.798 282.104 162.9 281.989 162.919C281.676 162.972 281.419 162.801 281.221 162.579C280.528 161.809 279.799 158.838 279.3 157.709C278.734 156.431 276.47 153.815 276.554 152.633Z" fill="#002E4E"/>
<path d="M269.082 155.527C269.229 155.569 269.374 155.615 269.516 155.674C271.162 156.35 273.536 159.386 274.227 161.031C274.521 161.729 274.592 162.146 274.292 162.844L273.656 162.828C273.181 162.568 272.911 162.138 272.607 161.702C272.13 161.02 268.998 156.562 269 155.981C269 155.829 269.054 155.679 269.082 155.527Z" fill="#002E4E"/>
</svg>
