<svg width="480" height="853" viewBox="0 0 480 853" fill="none" xmlns="http://www.w3.org/2000/svg">
<mask id="mask0_4151_20086" style="mask-type:luminance" maskUnits="userSpaceOnUse" x="0" y="0" width="480" height="853">
<path d="M106.59 852.113C108.316 806.539 120.327 753.336 146.712 691.101C226.493 502.867 248.915 390.632 220.207 328.536C192.475 268.56 117.212 255.364 0.00905575 265.68V266.586C116.857 256.29 191.857 269.364 219.386 328.915C247.983 390.769 225.557 502.785 145.881 690.761C119.449 753.117 107.41 806.434 105.666 852.113H106.59ZM115.646 852.113C115.137 803.416 126.739 745.512 155.982 676.516C235.763 488.282 258.185 376.046 229.475 313.951C201.034 252.412 122.53 240.125 0.00905575 251.956V252.861C122.173 241.052 200.418 253.223 228.67 314.331C257.267 376.184 234.841 488.191 155.167 676.176C125.871 745.287 114.235 803.309 114.727 852.113H115.646ZM125.457 852.113C122.235 800.509 133.049 737.949 165.266 661.942C245.047 473.705 267.469 361.472 238.76 299.375C210.016 237.171 130.138 225.274 5.36281 237.756L0.00905575 238.287V239.192L5.44251 238.649C129.816 226.212 209.4 237.992 237.949 299.746C266.552 361.595 244.127 473.602 164.461 661.58C132.183 737.724 121.333 800.399 124.533 852.113H125.457ZM136.066 852.113C129.646 797.832 139.232 730.68 174.551 647.351C254.333 459.115 276.755 346.881 248.044 284.784C219.301 222.588 139.424 210.694 14.6468 223.173C9.65886 223.673 4.77962 224.151 0.00905575 224.609V225.515C4.81464 225.052 9.72286 224.569 14.7337 224.066C139.107 211.628 218.693 223.406 247.24 285.161C275.836 347.014 253.412 459.022 173.736 647.007C138.368 730.449 128.74 797.718 135.135 852.113H136.066ZM147.504 852.113C137.39 795.413 145.296 723.722 183.841 632.768C263.622 444.531 286.044 332.298 257.335 270.201C228.585 208.004 148.704 196.114 23.9325 208.591C15.664 209.417 7.68954 210.187 0.00905575 210.9V211.806C7.73361 211.092 15.7208 210.317 24.0195 209.488C148.393 197.051 227.978 208.828 256.526 270.583C285.122 332.436 262.696 444.444 183.022 632.429C144.425 723.485 136.468 795.295 146.558 852.113H147.504ZM159.854 852.113C145.502 793.266 151.189 717.117 193.121 618.184C272.902 429.95 295.324 317.715 266.614 255.619C237.862 193.423 157.985 181.529 33.2074 194.008C21.5738 195.171 10.5077 196.221 0.00905575 197.159V198.065C10.5487 197.134 21.6475 196.08 33.3052 194.904C157.677 182.467 237.262 194.247 265.812 256C294.406 317.852 271.982 429.861 192.306 617.846C150.335 716.872 144.584 793.143 158.89 852.113H159.854ZM173.202 852.113C154.078 791.425 156.923 710.914 202.407 603.601C282.186 415.366 304.608 303.131 275.9 241.036C247.146 178.839 167.269 166.946 42.4932 179.424C27.3755 180.937 13.2395 182.273 0.00905575 183.371V184.276C13.2703 183.177 27.4353 181.837 42.5892 180.323C166.963 167.886 246.548 179.665 275.096 241.42C303.692 303.264 281.266 415.263 201.59 603.261C156.07 710.662 153.147 791.292 172.217 852.113H173.202ZM187.648 852.113C163.194 789.91 162.469 705.161 211.7 589.018C291.481 400.783 313.903 288.548 285.193 226.453C256.441 164.256 176.564 152.362 51.7862 164.841C33.068 166.712 15.8476 168.32 0.00905575 169.528V170.434C15.8784 169.222 33.1277 167.614 51.875 165.738C176.247 153.3 255.832 165.08 284.381 226.833C312.976 288.687 290.55 400.694 210.876 588.679C161.618 704.893 162.241 789.771 186.639 852.113H187.648ZM203.293 852.113C172.909 788.769 167.794 699.929 220.975 574.436C300.758 386.2 323.178 273.966 294.469 211.869C265.717 149.673 185.84 137.779 61.0629 150.258C38.6173 152.503 18.3325 154.363 0 155.615V156.521C18.3651 155.267 38.6789 153.402 61.1498 151.154C185.523 138.717 265.109 150.497 293.656 212.251C322.252 274.104 299.827 386.111 220.153 574.096C166.946 699.645 171.952 788.615 202.253 852.113H203.293ZM220.249 852.113C183.359 788.04 172.858 695.285 230.261 559.853C310.042 371.616 332.464 259.383 303.755 197.286C275.001 135.089 195.124 123.197 70.3469 135.674C44.0562 138.304 20.7014 140.416 0.00905575 141.626V142.531C20.7377 141.318 44.1232 139.204 70.4447 136.573C194.816 124.135 274.402 135.913 302.951 197.668C331.545 259.521 309.122 371.529 229.446 559.514C172.027 694.981 182.392 787.871 219.176 852.113H220.249ZM238.719 852.113C194.728 787.773 177.648 691.348 239.561 545.269C319.344 357.035 341.764 244.8 313.055 182.703C284.302 120.508 204.424 108.614 79.6489 121.091C49.3249 124.123 22.9328 126.461 0.00905575 127.528V128.433C22.9726 127.363 49.3937 125.023 79.7286 121.989C204.102 109.552 283.688 121.332 312.235 183.085C340.831 244.93 318.409 356.944 238.731 544.923C176.812 691.013 193.699 787.59 237.569 852.113H238.719ZM258.822 852.113C207.167 788.043 182.071 688.232 248.845 530.686C328.626 342.451 351.048 230.216 322.339 168.121C293.58 105.919 213.703 94.0304 88.9365 106.509C54.4377 109.95 25.021 112.511 0.0181115 113.31V114.216C25.0645 113.412 54.5138 110.854 89.0234 107.404C213.397 94.9669 292.982 106.747 321.53 168.5C350.124 230.354 327.7 342.361 248.024 530.346C181.247 687.872 206.105 787.837 257.631 852.113H258.822ZM280.877 852.113C221.015 788.932 186.056 686.15 258.131 516.103C337.91 327.868 360.334 215.633 331.623 153.538C302.871 91.3409 222.994 79.4471 98.2168 91.926C59.3478 95.8127 26.9246 98.562 0.00905575 98.9442V99.8497C26.9735 99.4549 59.4293 96.7019 98.2983 92.8152C222.672 80.3816 302.257 92.1541 330.805 153.914C359.401 215.769 336.975 327.776 257.301 515.76C185.253 685.744 219.895 788.699 279.607 852.113H280.877ZM305.146 852.113C236.659 790.555 189.502 685.338 267.411 501.521C347.192 313.285 369.614 201.051 340.905 138.954C312.15 76.7593 232.273 64.8638 107.497 77.3426C64.0531 81.6893 28.6524 84.6125 0.00905575 84.3952V85.3008C28.7122 85.5036 64.1455 82.5731 107.591 78.2282C231.965 65.791 311.55 77.5707 340.098 139.326C368.692 201.178 346.268 313.185 266.592 501.171C188.731 684.856 235.446 790.285 303.764 852.113H305.146ZM332.051 852.113C254.731 793.069 192.252 686.171 276.697 486.938C356.478 298.701 378.9 186.468 350.189 124.371C321.437 62.1741 241.56 50.2822 116.783 62.7592C68.5194 67.5859 30.181 70.6612 0.00905575 69.6216V70.5363C30.2553 71.5541 68.6226 68.4734 116.868 63.6539C241.242 51.2149 320.827 62.9946 349.376 124.749C377.971 186.602 355.545 298.62 275.871 486.595C191.516 685.615 253.407 792.75 330.56 852.113H332.051ZM362.116 852.113C276.209 796.677 194.067 689.21 285.979 472.354C365.76 284.118 388.182 171.885 359.473 109.787C330.725 47.5998 250.842 35.6988 126.065 48.1758C72.7068 53.5133 31.4796 56.71 0.00905575 54.5674V55.4892C31.5593 57.601 72.8173 54.4025 126.154 49.0669C250.527 36.6297 330.113 48.4076 358.66 110.162C387.256 172.015 364.831 284.024 285.155 472.008C193.386 688.53 274.701 796.304 360.457 852.113H362.116ZM396.106 852.113C302.895 801.728 194.525 695.459 295.275 457.771C375.057 269.536 397.479 157.301 368.768 95.2059C340.016 33.0074 260.139 21.1154 135.362 33.5924C76.5772 39.4714 32.5156 42.755 0.00905575 39.1635V40.0962C32.6098 43.6443 76.7094 40.3552 135.438 34.4817C259.811 22.0445 339.397 33.8242 367.946 95.5772C396.54 157.43 374.117 269.448 294.44 457.423C193.927 694.573 301.042 801.27 394.22 852.113H396.106ZM435.031 852.113C338.279 808.752 192.839 706.78 304.559 443.188C384.341 254.953 406.763 142.718 378.054 80.6226C349.3 18.4259 269.423 6.53201 144.647 19.0108C80.08 25.4676 33.2618 28.791 0.0199226 23.3159V24.2759C33.3722 29.693 80.2412 26.3496 144.731 19.9001C269.104 7.46297 348.69 19.2427 377.237 80.9957C405.832 142.85 383.408 254.857 303.732 442.842C192.384 705.54 335.814 808.167 432.854 852.113H435.031ZM0.00905575 7.86138C33.7616 15.7163 83.2803 12.3893 154.009 5.31675C278.381 -7.12041 357.967 4.65927 386.516 66.414C415.11 128.267 392.684 240.274 313.01 428.26C197.097 701.744 357.309 801.75 453.838 842.662C462.283 846.241 470.232 849.363 477.464 852.113H480C472.176 849.166 463.482 845.774 454.184 841.838C357.954 801.051 198.239 701.334 313.834 428.604C393.615 240.37 416.037 128.134 387.327 66.0392C358.575 3.84248 278.698 -8.05137 153.921 4.42745C83.0937 11.5109 33.6222 14.8307 0.00905575 6.88338V7.86138Z" fill="white"/>
</mask>
<g mask="url(#mask0_4151_20086)">
<path d="M479.994 852.112H0.00830078V-8.05157H479.994V852.112Z" fill="white"/>
</g>
</svg>
