<svg width="40" height="40" viewBox="0 0 40 40" fill="none" xmlns="http://www.w3.org/2000/svg">
<path d="M15.1083 10C16.2567 10.0076 19.8962 11.1025 20.3607 10.9443C26.5058 8.91803 32.1108 10.3702 37.2997 14.8047C41.1362 18.084 41.0135 24.9649 36.1014 24.9479C31.3205 24.9315 25.0476 19.8373 21.6516 15.7192C22.7624 18.7852 23.8512 21.7523 25.1218 24.7282C25.536 25.6977 26.1866 27.5272 25.764 28.5394C24.3278 28.4264 22.612 23.9503 21.9491 22.4711C21.5505 20.6428 20.6992 19.4156 20.214 17.2124C19.9338 19.6388 16.5839 29.3004 14.2692 28.9928C12.8208 27.4047 17.5693 18.2299 18.5372 16.534C17.5204 17.3963 16.3188 19.026 15.1346 20.1367C12.378 22.6252 8.34593 24.8383 4.97345 25.4839C0.343926 26.3702 -1.60603 20.0781 1.52952 16.1849C5.13846 11.7041 10.1995 10.3198 15.1083 10ZM36.2787 20.7951C36.7473 20.1379 36.7267 20.3716 36.7567 19.668C34.6639 15.1732 27.0017 13.6818 23.1982 13.9981C26.3695 16.3366 32.5541 23.7142 36.2787 20.7951ZM4.94947 20.9826C6.91965 21.5825 7.59331 20.9094 9.34113 19.8461C12.2821 18.0565 15.0448 16.4438 17.6708 13.9336L17.7065 13.7222C17.3215 13.612 17.4668 13.6068 17.0836 13.7069C13.7403 13.8967 10.232 14.0485 7.2459 16.1603C6.14071 16.9417 4.25938 18.5257 3.86638 20.0875C4.09296 20.7237 4.40698 20.7905 4.94947 20.9826Z" fill="#FE4513"/>
</svg>
