<svg width="180" height="180" viewBox="0 0 180 180" fill="none" xmlns="http://www.w3.org/2000/svg">
<path d="M36.9997 79.4878C38.3851 79.4435 39.345 79.3964 40.7068 79.6558C48.5242 81.1455 53.0462 89.0405 55.2184 96.025C56.4571 100.008 57.3029 103.707 56.5038 107.786C57.5496 105.981 59.5191 103.453 60.831 101.78C60.5804 100.946 60.4969 99.9638 60.5715 99.0984C60.7182 97.398 61.7342 91.7152 64.2313 91.9941C64.9529 92.6967 63.4119 95.304 63.1611 96.1886C62.6312 98.0558 62.737 99.9724 62.8264 101.889C62.8537 102.476 62.404 102.839 62.0257 103.198C60.843 104.464 60.0392 106.151 59.0753 107.595C56.2744 111.694 53.7478 115.812 51.8665 120.422C46.9993 132.347 50.8798 143.049 63.2741 147.946C63.6853 147.186 65.4847 145.155 66.6922 145.966C67.4946 146.505 65.6064 147.924 65.2756 148.287C64.9312 148.665 64.7177 149.268 64.7851 149.819C64.8218 151.966 66.6546 151.487 68.1447 151.295C67.942 150.185 68.4128 146.77 69.9085 147.005C70.0137 147.101 70.1577 147.191 70.1432 147.351C70.0009 148.907 69.9597 149.987 70.2122 151.542C71.5069 151.573 72.1275 151.429 73.3054 150.919C72.1219 148.334 72.8224 146.072 74.7323 144.099C71.986 140.932 69.5783 135.243 68.6473 131.119C68.3558 129.828 67.8799 125.985 68.4844 124.613C68.5584 124.446 68.8146 124.414 68.9747 124.392C69.6156 124.817 69.9422 127.885 70.1708 128.838C70.7847 131.397 71.1825 134.071 72.307 136.474C73.2567 138.504 74.4057 140.37 75.6171 142.247C76.0016 142.843 76.5122 143.461 76.8018 144.086C76.8129 144.856 75.8248 145.603 75.3574 146.305C74.254 147.964 74.4734 149.95 76.2035 151.075C77.2573 151.76 78.1569 151.609 79.3334 151.329C79.3741 150.438 80.1244 147.101 81.316 147.4C81.9088 148.032 81.4655 150.682 81.4703 151.861C83.334 152.753 84.267 152.538 85.8411 151.28C85.639 150.176 85.3425 148.258 86.5241 147.59C87.576 147.662 87.4757 150.065 87.8675 150.514C89.0009 151.115 90.3267 150.438 90.2145 149.119C90.0898 147.654 90.9746 146.55 92.1024 148.076L92.1798 148.183C92.5142 147.843 92.5518 147.639 92.9742 147.486C94.523 147.561 93.286 150.107 94.454 150.607C97.5268 151.921 96.1275 148.092 97.7908 147.622C98.7491 148.04 98.2967 150.372 98.1327 151.177C99.4237 152.496 101.661 153.451 103.007 151.573C103.718 150.582 102.754 148.36 103.709 148.035C104.838 148.386 105.144 150.55 105.326 151.56C106.134 151.547 107.555 151.51 108.157 151.04C109.979 149.616 109.816 147.129 108.214 145.589C107.908 145.295 107.609 144.92 107.361 144.586C107.228 144.407 107.266 144.202 107.356 144.024C107.792 143.114 108.615 142.234 109.139 141.397C109.79 140.341 110.472 139.245 111.035 138.138C112.566 135.135 113.387 131.976 114.031 128.688C114.197 127.837 114.462 124.732 115.131 124.378C115.845 124.442 115.908 125.073 115.902 125.657C115.845 127.645 115.886 129.829 115.383 131.778C114.688 134.477 113.425 137.382 112.177 139.877C111.463 141.303 110.326 142.886 109.353 144.121C111.269 145.725 111.674 147.949 111.121 150.288C112.464 151.326 112.633 151.05 114.161 150.399C114.27 149.15 114.085 148.527 113.802 147.329C113.665 146.747 113.808 146.095 114.503 146.003C115.893 146.37 116.38 149.682 116.305 150.692C116.278 151.047 117.838 151.125 118.314 150.816C119.011 150.362 119.183 150.057 119.481 149.187C119.376 148.55 119.327 148.186 119.087 147.57C118.752 146.706 117.887 145.816 117.868 144.917C117.941 144.766 117.983 144.622 118.174 144.612C119.887 144.525 121.111 146.74 121.335 148.019C122.646 147.329 123.931 146.708 125.19 145.924C140.558 136.071 134.285 120.891 126.162 108.727C124.998 106.984 123.344 103.745 121.706 102.526C121.746 99.9181 121.98 97.3379 120.814 94.9479C120.456 94.2146 119.849 93.0016 120.035 92.1894C120.229 91.9556 120.109 92.025 120.404 91.9696C121.958 92.3811 122.747 94.3406 123.187 95.713C123.836 97.7371 124.092 99.7724 123.593 101.851C128.912 108.228 134.025 116.111 135.997 124.285C138.986 136.679 132.584 145.882 121.091 150.146L121.039 150.248C119.707 152.8 117.781 153.507 115.201 152.103C113.257 152.931 111.671 153.496 109.884 151.85C108.248 153.279 106.235 153.836 104.178 152.939C101.866 154.804 98.7296 154.738 96.8636 152.293C94.4843 152.942 92.7481 152.144 92.1712 149.652C91.552 152.136 89.8075 153.147 87.3376 152.409C85.2645 154.791 82.5015 154.942 79.9574 153.163C77.9943 153.753 76.1653 153.535 74.5575 152.199C72.1286 153.435 71.2908 152.824 68.8243 152.893C66.2426 152.964 63.5411 153.852 63.0302 150.032C53.7954 147.184 46.3071 137.836 47.7886 127.989C48.0653 126.15 48.3663 124.43 48.9156 122.64C49.218 121.654 49.7002 120.567 49.8477 119.546C49.8839 118.302 49.4415 116.259 48.9654 115.098C47.4303 111.355 44.9743 110.251 41.5543 108.756C46.6507 107.232 50.4241 112.31 51.2518 116.75C52.2499 114.548 53.5323 112.476 54.6073 110.336C54.8044 109.944 54.9158 107.887 54.9578 107.322C55.3551 102.005 54.1284 96.7726 51.8014 92.0033C49.7664 87.7528 46.7506 83.5633 42.1025 81.9769C39.9473 81.148 36.6742 80.9513 34.5427 81.9794C30.4915 83.9734 27.8994 91.4458 31.8117 94.7114C32.518 95.3009 34.2462 96.0429 33.7866 97.1754C33.2396 97.7636 32.0756 97.4122 31.516 97.0562C25.2547 93.072 27.7512 82.9674 33.9883 80.2902C34.6592 80.0024 36.2006 79.7093 36.9997 79.4878Z" fill="white"/>
<path d="M85.9359 40.8165C84.8542 37.3193 90.1161 36.4222 91.0834 39.4982C91.3726 40.4181 90.6742 41.4054 89.9877 41.9816C91.3886 43.4638 93.0659 45.9742 94.184 47.7023C96.1576 50.7529 98.3104 53.7478 99.9193 57.0001C100.416 58.0043 101.242 58.9528 101.705 60.004C102.496 61.4249 102.98 62.9116 103.664 64.298C103.947 64.0224 104.505 63.4653 104.887 63.3204C108.696 61.8767 112.79 61.3641 116.833 61.1476C117.241 61.126 118.2 61.337 118.386 61.5841C119.099 62.9189 118.767 65.7876 118.65 67.254C118.426 70.0587 117.676 72.6456 116.684 75.2609C116.374 76.2639 115.814 77.8939 114.654 76.4962C114.457 76.2594 114.558 75.7947 114.645 75.5284C115.261 73.6567 115.973 71.7673 116.475 69.8605C117.054 67.6637 116.999 65.3005 117.068 63.0421C115.657 62.9165 114.28 63.2766 112.883 63.5187C110.653 63.9057 108.086 64.0748 105.948 64.7716C106.479 64.875 107.842 65.0613 107.979 65.5001C108.694 67.7952 105.877 66.9246 105.09 66.7755C103.114 66.4006 101.786 66.1434 99.8431 65.962C97.9585 65.791 94.9535 65.9742 93.2142 65.5011C92.3796 66.3437 91.5119 66.812 91.3285 65.1857C91.1587 65.238 90.9692 65.6358 90.6302 65.8273C90.0576 65.8103 89.9568 65.2771 89.8148 64.7843C89.9134 63.4059 90.3454 62.1415 91.3461 61.1583C91.726 60.7853 92.7391 60.1195 93.1508 60.7433C93.1964 61.4918 92.1995 62.2138 91.7406 63.2804L91.6859 63.4083C91.9011 63.2618 92.4652 62.6749 92.6156 62.4542C93.1766 61.6306 96.2501 58.9692 96.9662 60.7032C96.9033 61.1033 96.2218 61.6868 95.8969 61.9659C95.0857 62.6629 94.512 63.2851 93.8617 64.1417C96.6834 63.5929 98.4226 63.6887 101.247 63.9191C100.428 61.8218 99.0175 59.633 97.932 57.6193C94.8237 58.9303 92.8251 59.3639 89.6293 60.0607C86.3127 60.7839 85.2573 61.3678 81.8031 60.7814C81.2327 62.2591 80.7125 63.6249 79.849 64.964C82.3917 64.0605 84.6969 63.8442 87.3724 64.0529C86.8326 63.6475 85.273 62.6636 85.7474 61.9103C86.7587 61.4273 88.7326 63.0766 89.1801 63.9073C89.3178 64.163 89.4563 64.4422 89.639 64.6642C89.7582 65.4024 89.7597 66.133 88.9008 66.3243C88.1984 66.1792 87.9365 65.3567 87.8334 65.379C84.5386 66.1954 80.3644 65.4748 77.4388 67.6232C76.6719 68.1865 76.16 67.8381 76.0814 67.799C75.6073 67.006 77.4835 65.7764 78.0824 65.4454C76.2176 64.891 74.3372 64.3379 72.4066 64.0665C71.4391 63.9844 68.5437 63.1135 68.3226 64.6007C67.8702 67.6494 67.661 71.0017 68.6693 73.9532C68.8322 74.4296 69.5816 76.1226 68.1849 75.8214C67.0778 74.8963 66.5487 72.1459 66.4242 70.7638C66.278 69.1381 66.3956 67.4061 66.5922 65.7941C66.7044 64.8721 66.7462 63.5004 67.3138 62.756C67.9878 61.8725 70.2362 62.3537 71.2181 62.4142C73.8778 62.6775 76.6439 63.0313 78.9154 64.5734C79.066 63.859 79.3163 63.1449 79.5541 62.4542C80.7521 58.9735 82.2173 55.5808 83.5804 52.1622L85.6547 46.9269C86.2107 45.4848 86.8881 43.6258 87.5619 42.2472C86.9474 42.0045 86.14 41.4752 85.9359 40.8165ZM94.7289 52.6437C92.8593 53.436 86.0279 55.4603 84.2533 54.7345L84.1508 54.6915C83.4874 56.3407 82.7841 58.0298 82.1644 59.6915L83.9662 59.4406C88.7644 58.8794 92.6067 57.6994 97.0541 55.9718C96.52 55.3493 95.4352 53.5011 94.9271 52.6915C94.9191 52.6785 94.7708 52.6367 94.7289 52.6437ZM88.808 43.2706C87.6225 46.1986 86.4124 49.1157 85.3441 52.089C85.1796 52.5473 85.0035 52.9976 84.8011 53.4406C86.2506 53.0224 87.7488 52.9346 89.3324 52.4757C91.0616 52.0029 92.3245 51.6515 93.9711 50.9708C93.2431 50.1112 88.9056 43.333 88.808 43.2706Z" fill="white"/>
<path d="M13.2968 108.138C14.1897 108.092 14.4999 108.275 15.0828 108.253C16.406 108.204 17.7643 108.072 19.1077 108.173C19.234 108.183 19.6689 108.468 19.8095 108.558C20.0961 108.542 20.2651 108.359 20.5357 108.174C21.7573 108.29 24.3745 108.689 25.5241 109.078C27.6091 112.964 27.091 113.876 26.885 118.214C26.8671 118.592 27.0666 120.765 27.0785 121.486C26.5401 122.458 26.059 122.842 25.1529 123.44C24.557 123.276 24.0382 123.201 23.5411 122.843C22.8177 122.84 22.0782 122.956 21.3544 123.011C20.7856 123.054 19.8397 122.83 19.3389 123.064C19.2846 123.291 19.3139 123.297 19.3956 123.524C20.3123 124.459 23.8834 123.181 25.1502 123.764C27.0772 124.652 27.0084 127.067 24.9978 127.815C24.79 127.892 24.751 127.882 24.5803 128.043C25.1729 129.378 29.5819 131.924 28.773 133.438C26.441 137.801 25.0275 133.935 22.9613 132.082C22.1228 131.33 21.2791 130.43 20.4868 129.625C20.2453 129.383 19.9208 128.664 19.6767 128.573C19.5618 128.699 19.5366 128.842 19.5887 129.007C20.0083 130.345 19.935 131.553 19.8413 132.944L19.8398 133.103C19.8154 135.301 19.7204 136.195 17.3027 135.972C17.0838 135.81 16.6472 135.489 16.5111 135.258C15.7818 134.019 15.7582 131.698 15.7129 130.283C15.6879 129.503 15.7811 128.676 15.5247 127.966L15.4042 127.924C15.1767 128.224 14.8376 129.005 14.6258 129.379C14.1056 130.297 13.5559 131.242 13.0132 132.147C12.79 132.52 12.0509 133.034 11.7738 133.357C11.4132 133.776 10.9864 134.607 10.701 135.106C9.42557 135.63 8.55222 135.4 7.62516 134.232C6.21886 132.46 8.95618 130.254 9.86175 128.882C10.0191 128.643 10.4505 128.337 10.4933 128.071C9.44536 127.886 8.64784 127.262 8.48496 126.194C8.18331 124.216 8.41314 123.561 10.2926 123.218C11.7048 123.729 12.9301 123.711 14.4359 123.783C15.2203 123.821 15.5101 123.372 16.0293 122.81C15.0103 122.806 9.65805 123.048 9.11542 122.611C8.67025 122.252 8.60505 121.565 8.50967 121.037C8.22548 119.466 8.15144 117.951 8.21464 116.353C8.242 115.66 8.3593 114.934 8.31689 114.244C8.25744 113.277 7.94195 112.334 7.89511 111.359C7.85521 110.529 8.0037 109.856 8.59475 109.238C9.6925 108.09 11.834 108.168 13.2968 108.138ZM12.8046 117.148C12.2814 117.406 11.8275 117.75 11.8992 118.413C12.0627 118.626 12.1789 118.754 12.4856 118.784C13.6325 118.898 13.8179 118.503 15.0629 118.831C15.5581 118.812 15.9991 118.494 16.0617 117.983C15.7666 116.871 13.6937 117.127 12.8046 117.148ZM19.6898 112.298C19.1763 112.805 18.9181 113.787 19.8237 113.997C21.4073 113.596 21.0162 113.838 22.7044 114.098C23.021 114.171 22.9041 114.21 23.1133 114.093C23.2792 113.26 23.4485 112.482 22.2477 112.401C21.2879 112.336 20.6674 112.505 19.6898 112.298ZM13.1197 113.722C13.9466 113.934 14.5301 114.121 15.392 114.011C15.6346 113.637 15.9389 113.204 15.8816 112.741C15.3996 112.273 14.7881 112.8 14.2883 112.991C13.3502 112.412 13.3715 112.382 12.2914 112.414C12.0384 112.599 11.7776 112.875 11.765 113.19C11.7167 114.4 12.5368 114.035 13.1197 113.722ZM20.6793 118.282C21.4543 118.608 21.7534 118.97 22.5518 118.613C23.0557 118.18 22.9793 117.943 23.0495 117.232C21.1098 117.988 21.1395 117.687 19.4835 117.205C18.6669 118.659 19.4984 118.776 20.6793 118.282Z" fill="white"/>
<path d="M112.805 3.68997C113.207 3.71285 113.799 3.99282 114.183 4.15698C116.56 3.53593 119.71 5.43324 121.333 7.11586C121.707 7.5041 122.596 8.17383 122.822 8.62437C123.317 9.60949 123.715 10.3233 124.341 11.2328C124.354 11.9545 124.477 12.9697 124.522 13.7251C124.695 16.6168 124.029 18.5063 122.46 20.8476C121.606 22.1223 120.435 22.5655 119.153 23.2677C118.781 23.471 118.236 24.0508 117.829 24.1235C116.927 24.2848 116.112 24.3375 115.182 24.5128C112.748 24.618 109.657 23.9664 107.631 22.5199C107.205 22.2158 106.717 21.581 106.313 21.2175C105.517 20.4998 104.497 19.9828 104.114 18.928C102.896 15.8333 102.916 12.6077 104.115 9.51058C104.336 8.94062 104.686 8.26318 105.083 7.77859C105.97 6.8728 108.645 4.62014 109.787 4.33668C111.165 3.99508 111.118 4.42924 112.805 3.68997ZM106.761 13.4375C107.054 15.3672 107.29 17.4342 109.05 18.5608C110.501 19.4897 111.866 19.7471 113.383 20.7508L114.406 20.5775C115.386 20.3597 116.553 20.0378 117.519 19.628C118.886 19.0476 120.364 17.1442 120.394 15.5995C120.415 14.5314 120.487 13.2574 120.335 12.1865C119.866 10.8073 118.141 9.84048 117.159 8.67388C115.682 8.23468 114.37 7.74574 112.838 7.84624C111.563 8.09994 110.627 8.41831 109.531 9.1515C107.98 10.189 107.646 11.8869 106.761 13.4375Z" fill="white"/>
<path d="M64.2748 4.24805C64.943 4.25072 65.2768 4.58032 65.7239 4.62721C67.6071 4.72653 68.5485 5.12433 70.126 6.02508C72.6008 7.4382 74.1869 10.2807 74.6811 13.0439C74.7727 13.5564 74.7928 15.0759 74.8031 15.8575C74.8234 17.3917 73.1312 20.0522 72.2291 21.315C70.3796 23.3293 66.5695 24.9856 63.8485 25.0537C62.6669 24.9823 59.9482 24.3647 58.6708 24.0715C58.4717 24.0258 57.8091 23.531 57.6084 23.3645C55.0066 21.2066 53.541 18.269 53.1581 14.9299C53.1186 14.5849 53.1228 13.7458 53.2375 13.3745C53.7361 11.7605 54.5076 9.53715 55.4598 8.16735C55.6113 7.94912 57.0607 7.05965 57.2868 6.70306C57.3372 6.62335 57.7122 6.20972 57.791 6.11909C58.1941 5.99146 58.6611 5.93242 59.0826 5.86304C60.6604 4.46832 62.1713 4.54655 64.2748 4.24805ZM63.9178 20.7413C65.1894 20.5174 65.5616 20.4048 66.8484 20.5371C68.8684 19.0146 71.366 16.4148 70.7254 13.5172C70.4776 12.3954 69.1167 10.429 68.4215 9.42347C66.7087 8.57009 65.7743 8.78715 63.971 8.1965C61.0852 9.02654 59.6706 9.13068 57.9809 11.9965C57.1768 13.3114 57.1776 14.7202 57.392 16.2015C57.4277 16.4465 57.4087 17.1703 57.4931 17.3589C58.5477 19.7215 61.3792 21.5399 63.9178 20.7413Z" fill="white"/>
<path d="M136.067 10.9044C137.967 10.7225 139.127 12.3908 139.365 14.1137C139.572 15.0473 138.969 17.0609 139.135 17.8475C139.684 20.4406 139.577 22.7037 139.425 25.3448C139.372 26.2589 139.852 27.6943 139.817 28.6655C139.798 29.1949 139.345 30.1725 139.615 30.5525L139.82 30.5798C140.366 30.2327 140.708 28.7613 141.051 28.1587C141.139 27.911 141.99 27.1397 142.032 26.9733C142.431 25.4 143.159 24.7381 144.196 23.5686C144.584 23.132 144.853 22.1328 145.248 21.582C145.97 20.5767 146.638 19.0696 148.005 18.7967C149.701 18.5526 150.038 19.392 150.306 20.7538C149.93 21.9594 148.769 22.9116 148.61 24.3421C148.577 24.6406 147.545 25.7426 147.253 26.0418C145.922 27.2447 145.312 29.403 144.279 30.7428C143.233 32.1002 142.08 33.1369 141.313 34.7869C140.936 35.5971 140.697 36.1913 139.842 36.48C136.027 36.8625 136.016 33.6671 135.894 30.9966C135.814 29.2489 135.734 27.8728 135.829 26.1025C135.893 24.9226 135.325 23.3956 135.339 22.0595L135.37 18.9383C135.376 18.432 135.603 18.1012 135.365 17.627L135.172 17.5893C134.881 17.8141 134.79 18.7281 134.178 19.2696C133.499 19.8712 132.868 20.9356 132.607 21.8091C132.277 22.7437 131.209 23.4294 130.701 24.2419C129.863 25.5819 129.574 26.5817 128.398 27.7255C127.846 28.2621 127.27 29.4966 126.142 28.7262C123.826 27.1448 124.951 25.6456 126.513 24.2102C126.884 23.8461 127.387 21.8697 127.861 21.3103C128.154 20.7823 129.099 20.0611 129.339 19.561C130.14 17.6875 130.886 16.8065 132.153 15.2967C133.96 13.1435 132.816 11.9382 136.067 10.9044Z" fill="white"/>
<path d="M20.5306 28.0687C22.3579 27.9013 23.8413 28.5599 23.527 30.932C23.3563 32.2211 20.4216 32.1662 19.5774 32.8433C18.8459 33.4297 18.4373 33.9382 17.5302 34.4676C17.2123 35.2477 16.9215 36.3694 16.6978 37.155C16.3515 38.3709 16.3809 40.2223 17.1197 41.2838C18.2703 42.9373 19.305 43.8969 21.2122 44.5653C21.7047 44.7692 22.1839 45.0436 22.7097 45.1565C25.2708 45.7051 27.4439 43.742 28.3779 41.522C28.6964 40.7653 28.8409 39.918 29.0077 39.107C28.7062 38.2857 28.4921 37.7791 28.122 36.9896C26.8872 37.9756 26.0593 39.4756 24.5283 40.22C23.7433 40.6015 22.5368 40.9745 21.753 40.3897C21.0087 39.8345 20.9602 38.2706 21.5294 37.5777C21.9081 37.1055 22.3817 36.9614 22.8339 36.5828C23.8591 35.431 24.939 34.3528 25.9622 33.2032C26.2888 33.1174 26.8343 33.0511 27.1834 32.9976C27.8682 32.8706 28.9134 32.8377 29.6336 32.7942C31.5612 34.1742 33.2345 37.6685 33.1415 40.0548C33.0575 42.2105 31.5327 44.8564 30.0051 46.3629C29.6969 46.6668 27.9467 47.8108 27.5312 48.2112C26.0747 48.487 24.5532 49.261 23.0786 49.2613C22.4061 49.2613 20.5488 48.5007 19.7002 48.5667C17.9723 47.7158 16.2729 46.4231 15.0549 44.9768C13.3161 42.9123 12.8572 41.7137 12.6878 39.0914C12.6325 38.2358 12.1674 37.2654 12.3541 36.2276C12.5794 34.8635 13.5962 32.4694 14.725 31.5845C15.7389 30.7896 16.8806 29.7833 17.9066 28.9449C19.3549 28.7964 19.1662 28.5493 20.4229 28.1058L20.5306 28.0687Z" fill="white"/>
<path d="M157.992 28.7521C160.009 28.5808 162.794 29.7047 164.068 31.2259C164.934 32.2601 165.648 33.2938 166.615 34.3503C166.864 35.7319 167.575 36.7937 167.539 38.1416C167.502 39.5742 165.976 40.2914 164.718 40.0977C163.274 39.8754 163.461 37.0665 162.731 36.0665C162.132 35.2839 161.556 34.7047 160.996 33.8736C158.967 33.2233 156.946 32.3646 154.838 33.206C153.748 33.7738 152.249 35.0081 151.69 36.1077C150.835 37.7903 149.757 39.6695 150.619 41.5451C151.376 43.1914 152.614 44.244 154.262 44.9124C156.114 45.6636 156.803 45.2777 158.486 44.5516C157.393 43.3689 156.407 42.7164 155.57 41.3108C155.202 40.7018 154.908 40.288 154.856 39.5358C154.799 38.2631 155.29 37.5526 156.602 37.5387C158.482 37.5189 158.312 38.7771 159.097 39.4798C160.213 40.4794 161.233 41.3997 162.281 42.4963C162.502 43.3341 162.873 45.904 162.355 46.5236C161.23 47.869 158.13 49.2532 156.441 49.5349C154.1 49.9252 150.655 47.9557 149.085 46.2954C148.306 45.42 148.586 45.1361 147.35 44.1318C147.227 43.7651 146.31 40.1844 146.301 39.9136C146.161 35.5099 150.013 30.6511 154.109 29.3651C155.438 28.9474 156.485 29.277 157.992 28.7521Z" fill="white"/>
<path d="M42.9308 12.5053C45.2308 12.2053 46.4358 15.5267 47.0129 17.2554C48.3452 18.3411 48.0178 18.4843 48.7219 19.8992C49.7991 22.0638 50.913 23.8959 50.7855 26.4149C50.7351 27.4129 50.6983 28.454 50.7454 29.4576C49.7002 30.6325 49.2403 31.5257 48.0384 32.663C45.0529 35.4884 42.6496 34.9337 38.9517 34.8312C38.8553 34.7375 38.7256 34.6111 38.6293 34.5258C37.4552 33.4877 36.4754 33.4217 35.3122 32.1668C33.9467 30.6932 33.9225 29.4821 33.1717 27.7272C32.7742 26.9409 32.1812 26.2464 31.7461 25.4844C31.3703 24.8262 31.1184 24.1451 30.7076 23.5047C30.1505 22.6402 29.7879 22.0612 29.4558 21.0925C29.7108 19.6882 30.2201 18.2622 32.016 18.6109C33.4052 18.8807 33.6905 20.8765 34.2766 21.9218C34.7131 22.7591 35.4709 23.3827 35.8771 24.243C36.9577 26.5302 37.6665 30.2374 40.5815 30.8545C40.912 30.9247 42.7696 31.0055 43.0998 30.8696C43.8847 30.5458 45.091 29.9998 45.8394 29.5281C47.4347 28.4195 47.1057 27.2191 46.7535 25.6358C46.7109 25.4442 46.8423 24.6508 46.8832 24.3857C45.1272 21.9085 43.9891 18.5236 42.0855 16.1026C41.9163 15.887 41.4003 15.5442 41.1553 15.3737C41.4599 14.0688 41.5947 13.0709 42.9308 12.5053Z" fill="white"/>
<path d="M161.699 105.379C162.59 105.538 162.945 106.001 163.508 106.658C163.634 107.239 163.542 108.374 163.755 108.626C164.666 109.024 167.769 108.592 168.877 108.441C169.927 108.891 171.309 109.924 170.667 111.214C169.506 113.547 165.822 112.001 163.831 112.335C163.61 112.373 163.373 113.057 163.283 113.268C163.476 113.767 163.559 114.101 164.015 114.368C164.228 114.293 164.443 114.225 164.657 114.152C165.611 113.828 168.618 114.5 169.68 114.759C172.294 118.347 170.824 120.755 171.23 124.693C171.284 125.221 171.295 125.69 171.294 126.22C170.645 126.986 170.231 127.473 169.346 127.924C168.526 127.789 167.973 127.507 167.32 127.407L167.272 127.537C167.423 127.81 169.277 129.609 169.629 129.927C171.781 131.869 174.685 133.139 170.846 135.55C170.484 135.491 169.708 135.369 169.497 135.111C168.412 133.784 167.249 132.676 165.916 131.577C165.475 131.204 165.021 130.849 164.59 130.464C164.291 130.197 163.98 129.235 163.577 129.284C163.514 129.832 163.824 130.883 163.843 131.41C163.881 132.443 163.812 134.365 163.539 135.303L163.504 135.421C163.188 135.739 163.096 135.804 162.716 136.048C160.192 136.177 160.001 134.875 159.755 132.716C159.575 131.134 159.673 129.604 159.677 128.02C158.395 129.71 157.875 131.886 156.123 133.274C155.309 133.918 154.82 135.323 153.735 135.52C153.23 135.612 152.749 135.374 152.353 135.082C151.878 134.731 151.168 134.077 151.118 133.461C151.012 132.134 154.621 128.644 155.552 127.434C154.911 127.453 153.317 127.559 153.058 126.842C152.667 125.674 152.129 122.769 152.437 121.552C153.029 119.223 150.823 115.696 153.477 114.529C154.971 113.871 158.078 113.727 159.479 114.228C159.704 113.939 159.944 113.561 160.152 113.252C159.963 112.829 159.739 112.507 159.488 112.122C158.486 112.5 158.158 112.213 157.159 112.306C156.582 112.363 155.971 112.515 155.398 112.568C153.661 112.728 152.649 111.993 152.628 110.204C152.522 109.389 152.871 108.193 153.944 108.303C155.627 108.474 157.449 108.627 159.15 108.741C159.496 108.508 159.692 108.328 160.001 108.055C160.069 106.771 160.41 105.884 161.699 105.379ZM159.295 123.724C159.783 123.676 160.158 123.325 160.266 122.848C160.04 121.927 157.783 122.151 157.016 122.159C156.472 122.446 156.083 122.674 156.137 123.364C156.581 124.015 157.395 123.692 158.027 123.55C158.48 123.448 158.859 123.597 159.295 123.724ZM166.853 119.402L167.234 119.46C167.88 118.956 167.126 117.431 165.98 117.806C165.61 117.927 164.402 117.843 163.998 117.717C163.519 118.075 163.317 118.394 163.524 119.004C163.742 119.265 163.735 119.248 164.066 119.352C165.25 118.909 165.646 119.167 166.853 119.402ZM156.334 119.528C156.708 119.334 156.995 119.171 157.396 119.034C157.985 119.187 158.914 119.446 159.509 119.413C159.827 119.029 160.085 118.784 160.037 118.274C159.613 117.725 159.028 118.168 158.542 118.421C157.611 117.893 157.577 117.842 156.542 117.857C155.81 118.419 156.029 118.775 156.334 119.528ZM166.541 123.631C166.99 123.375 167.134 123.141 167.329 122.656L167.273 122.474C166.251 122.158 165.767 123.292 163.79 122.197C163.535 122.513 163.413 122.611 163.312 122.99C163.436 123.442 163.856 123.679 164.265 123.432C165.321 122.795 165.495 123.934 166.541 123.631Z" fill="white"/>
<path d="M88.8355 117.36C89.5157 117.364 91.6712 117.884 91.9462 117.809C95.5857 116.845 98.9053 117.536 101.978 119.645C104.251 121.205 104.178 124.477 101.269 124.469C98.4372 124.461 94.7221 122.039 92.7108 120.08C93.3687 121.538 94.0135 122.949 94.766 124.365C95.0113 124.826 95.3967 125.696 95.1464 126.177C94.2958 126.124 93.2796 123.995 92.887 123.291C92.6509 122.422 92.1467 121.838 91.8594 120.79C91.6934 121.944 89.7094 126.539 88.3385 126.393C87.4807 125.638 90.293 121.274 90.8663 120.468C90.2641 120.878 89.5524 121.653 88.8511 122.181C87.2185 123.365 84.8305 124.417 82.8331 124.724C80.0913 125.146 78.9364 122.153 80.7934 120.302C82.9308 118.17 85.9283 117.512 88.8355 117.36ZM101.374 122.494C101.651 122.182 101.639 122.293 101.657 121.958C100.417 119.82 95.8794 119.111 93.6268 119.261C95.505 120.374 99.1678 123.883 101.374 122.494ZM82.8189 122.583C83.9858 122.869 84.3847 122.549 85.4199 122.043C87.1617 121.192 88.7979 120.425 90.3531 119.231L90.3743 119.13C90.1463 119.078 90.2323 119.075 90.0054 119.123C88.0253 119.213 85.9475 119.285 84.179 120.29C83.5244 120.661 82.4102 121.415 82.1774 122.158C82.3116 122.46 82.4976 122.492 82.8189 122.583Z" fill="white"/>
<path d="M67.9618 170.665C68.9822 170.622 69.289 171.111 69.774 171.902C70.822 171.434 72.0161 170.769 73.0824 171.685C73.3522 171.916 73.4413 172.135 73.7367 172.207L74.2802 171.606C75.8624 170.994 77.9241 171.246 78.6689 172.982C79.3891 174.66 79.4381 177.078 79.0804 178.859C79.0258 179.131 78.6764 179.679 78.3501 179.764C75.5759 180.031 77.4199 175.789 76.8853 174.483C76.2452 172.92 75.2109 173.802 74.6744 174.808C75.1402 175.995 74.7635 175.699 74.7685 177.17C74.7724 178.264 75.2065 180.475 72.7389 179.524C72.0367 179.254 73.2606 173.068 71.4192 173.565C69.4867 174.087 70.9166 178.049 70.0385 179.267C69.8606 179.661 68.934 179.905 68.6673 179.532C67.5614 177.987 68.1291 174.944 67.9028 173.001C67.2168 172.057 66.5945 171.545 67.9618 170.665Z" fill="white"/>
<path d="M106.983 171.282C107.072 171.305 107.432 171.4 107.486 171.453C108.577 172.541 108.939 176.431 109.161 177.792C109.621 176.74 109.851 171.87 111.631 172.887C112.715 173.507 112.957 176.549 113.291 177.901C113.562 176.935 113.913 171.641 115.508 171.369C116.189 171.252 116.57 172.085 116.591 172.81C116.597 173.705 115.691 177.449 115.349 178.449C115.086 179.22 114.156 179.517 113.446 179.783C112.004 179.215 111.6 178.218 111.281 176.796C111.12 177.635 110.84 178.698 110.162 179.269C109.558 179.778 109.136 179.692 108.418 179.634C106.482 178.454 106.943 177.261 106.465 175.274C106.216 174.245 105.842 173.589 105.81 172.502C106.136 171.773 106.257 171.56 106.983 171.282Z" fill="white"/>
<path d="M85.5986 171.373C88.3867 171.925 88.5593 171.382 90.5274 173.878C90.5837 174.585 90.6065 174.793 90.5188 175.496C88.9065 177.563 86.1864 176.052 84.8717 176.487L84.8143 176.617C84.9959 176.887 85.1969 176.92 85.4516 177.078C86.577 177.777 87.4214 176.863 88.6648 177.281C89.4767 178.079 89.2804 178.52 88.745 179.414C87.6553 179.754 85.7955 179.901 84.7648 179.357C82.9854 178.417 82.7176 177.207 82.1257 175.539C83.2098 172.788 82.3253 172.714 85.5986 171.373ZM87.1792 174.566C87.4813 174.566 87.8137 174.606 88.059 174.455L88.0751 174.287C87.498 173.819 86.3136 173.719 85.5895 173.757C85.2261 173.887 84.8082 174.175 84.9641 174.613C85.1922 174.617 85.1813 174.603 85.3806 174.546C85.8793 174.403 86.6474 174.518 87.1792 174.566Z" fill="white"/>
<path d="M91.9916 88.3554C97.6786 88.0818 94.756 91.4447 92.4886 93.6911C92.8556 95.0711 94.7101 98.8368 94.6444 99.7568C94.4434 100.086 93.9456 100.251 93.668 100.048C92.5813 99.2516 91.9412 96.6547 91.4741 95.4753C90.9008 96.563 89.9481 100.038 88.7937 100.361C87.606 99.9281 90.0525 94.4721 90.4946 93.4512C87.432 90.2795 86.8537 88.96 91.9916 88.3554Z" fill="white"/>
<path d="M94.8278 126.858C94.9008 126.892 95.0422 126.944 95.106 127.001C95.2752 127.153 95.2794 127.299 95.3103 127.512C95.6138 129.591 94.9915 146.334 94.2198 147.096C93.9458 147.367 93.4914 147.396 93.1331 147.43C92.9193 147.306 92.5501 147.065 92.5529 146.801C92.5913 143.169 92.912 139.233 93.3057 135.634C93.5365 133.524 93.7072 128.503 94.8278 126.858Z" fill="white"/>
<path d="M88.8024 126.945C88.9346 126.963 89.073 127.002 89.2039 127.034C90.1588 128.129 91.1865 143.758 91.2875 146.183C91.3165 146.877 91.3101 146.869 90.8259 147.322C89.0051 147.771 89.2977 145.825 89.161 144.531C88.7139 140.149 88.5707 135.741 88.3488 131.344C88.2893 130.164 88.3171 127.965 88.8024 126.945Z" fill="white"/>
<path d="M116.782 77.1522C118.774 77.6347 120.896 79.149 121.739 81.0541C122.252 82.214 123.05 83.7962 121.506 84.4621C122.521 85.6387 123.014 86.3792 123.063 88.0347C123.075 88.4092 122.989 88.7469 122.718 89.011C121.763 89.2503 121.097 87.6079 120.719 86.8947C120.302 86.1263 120.217 85.9677 119.656 85.2528C119.411 84.8115 117.557 83.5254 117.563 83.1033C117.6 80.6758 120.66 83.5862 120.965 83.8762C120.528 82.93 120.228 81.944 119.644 81.0689C118.807 79.8135 117.283 79.3708 116.327 78.2647C115.966 77.8462 116.417 77.3859 116.782 77.1522Z" fill="white"/>
<path d="M114.61 64.6963C117.384 64.603 114.256 71.7939 113.516 72.8184C112.453 72.3043 112.297 72.1703 112.714 70.9673C113.106 69.8372 113.551 68.7465 113.886 67.5955L114.356 66.6134C113.196 67.3331 109.192 68.7573 107.967 67.9084C107.805 67.5629 107.839 67.7449 107.903 67.3373C108.406 66.8505 113.804 64.8955 114.61 64.6963Z" fill="white"/>
<path d="M70.433 65.9339C71.6845 65.9528 76.1687 67.8014 75.8669 69.6319C75.8262 69.8788 75.3484 70.0866 75.1048 70.2106C74.2529 69.6862 71.8212 67.8399 71.0218 67.5958L70.8804 67.7201C70.7487 68.114 70.7844 68.2352 70.8097 68.6637C70.9436 70.346 71.0951 72.498 71.2724 74.214C71.2916 74.4015 71.0864 74.7873 70.8712 74.9492L70.6786 74.9102C70.4355 74.6706 70.3356 74.3608 70.2392 74.0398C69.9032 72.9195 68.8691 67.3919 69.382 66.5293C69.6197 66.1292 70.0084 66.0381 70.433 65.9339Z" fill="white"/>
<path d="M37.9162 101.956C39.7563 101.818 42.2523 102.9 43.854 103.808C44.9112 104.407 46.2086 106.106 43.9768 106.206C42.9077 105.732 42.1058 105.199 40.9089 104.756C39.2961 104.16 38.1546 104.008 36.6575 103.148C36.3897 102.377 37.3368 102.09 37.9162 101.956Z" fill="white"/>
<path d="M9.57173 54.7223C10.765 54.4267 11.9719 55.1544 12.2676 56.3483C12.5634 57.5421 11.8359 58.7496 10.6428 59.0458C9.44933 59.3417 8.24194 58.6139 7.94614 57.4198C7.65035 56.2257 8.3782 55.0179 9.57173 54.7223Z" fill="white"/>
<path d="M168.846 54.9703C170.04 54.6688 171.252 55.3965 171.548 56.5932C171.844 57.7895 171.111 58.9987 169.914 59.2893C168.724 59.5782 167.525 58.8508 167.231 57.6619C166.937 56.4728 167.659 55.2698 168.846 54.9703Z" fill="white"/>
<path d="M62.7242 84.2183C62.5661 84.1046 62.3798 83.9846 62.3163 83.7884C62.0649 83.015 62.3197 82.1443 62.5995 81.4227C63.3843 79.3981 64.7363 78.1059 66.6941 77.211C67.0795 77.0602 67.528 76.936 67.9195 77.1288C68.265 77.2993 68.3407 77.6144 68.3708 77.956C68.4181 78.4954 67.7415 78.8804 67.3223 79.064C64.8215 80.1581 64.6353 81.4341 63.3737 83.5363C63.195 83.736 62.9255 84.0592 62.7242 84.2183Z" fill="white"/>
<path d="M35.3235 97.2258C41.5526 97.3874 41.7912 101.917 39.2907 100.61C38.0512 99.9674 36.969 99.6353 35.6142 99.321C34.8586 99.1457 33.7618 99.0039 33.1958 98.4899C33.0774 98.1951 33.0793 98.3392 33.1842 98.0438C33.7323 97.4891 34.5731 97.2941 35.3235 97.2258Z" fill="white"/>
<path d="M78.3429 83.2797C79.1013 83.0741 79.9117 83.2931 80.4638 83.8525C81.0157 84.412 81.2239 85.2255 81.0087 85.9817C80.7935 86.7375 80.1879 87.3193 79.4242 87.5037C78.2655 87.7834 77.0972 87.0802 76.8015 85.9251C76.5059 84.77 77.1924 83.5914 78.3429 83.2797Z" fill="white"/>
<path d="M103.793 82.7517C104.962 82.4319 106.167 83.1279 106.475 84.3002C106.783 85.4729 106.076 86.6718 104.901 86.9682C103.742 87.2608 102.564 86.5651 102.26 85.4088C101.956 84.2526 102.64 83.0671 103.793 82.7517Z" fill="white"/>
<path d="M63.4372 83.6965L63.5452 83.587C64.2864 82.8426 66.6746 80.709 66.8548 83.0599C66.9082 83.7553 64.7875 84.9592 64.334 85.5512C63.6892 86.3937 62.9143 88.8731 61.7353 88.9269C60.7842 87.9902 62.1403 85.2562 62.7517 84.3624C63.1034 84.144 63.2423 84.0476 63.4372 83.6965Z" fill="white"/>
<path d="M124.418 113.705C125.999 113.605 127.031 115.409 127.668 116.624C128.175 117.592 129.529 119.595 128.664 120.547C128.275 120.687 128.201 120.728 127.804 120.657C127.628 120.546 124.506 115.274 124.221 114.656C124.099 114.392 124.278 113.973 124.418 113.705Z" fill="white"/>
<path d="M105.433 93.8953C106.804 93.8692 108.167 93.9728 109.466 94.4487C109.938 94.622 111.281 95.2494 110.984 95.8479C110.411 96.1287 109.3 95.7395 108.667 95.5726C107.289 95.4007 106.137 95.4795 104.774 95.7306C104.453 95.7896 103.409 95.9925 103.189 95.7885C101.687 94.3966 104.55 93.9786 105.433 93.8953Z" fill="white"/>
<path d="M76.5261 93.8939C77.5691 93.8884 80.8318 93.9277 81.2469 95.0432C81.2572 96.3491 79.5923 95.5648 78.8289 95.5143C78.3464 95.4823 77.8572 95.4057 77.3628 95.372C76.3318 95.4645 73.3491 96.4109 72.7012 95.8297C72.8218 94.7771 75.6227 93.9984 76.5261 93.8939Z" fill="white"/>
<path d="M59.3759 113.808C59.7276 113.956 59.6179 113.837 59.7724 114.118C59.6766 114.847 58.531 116.259 58.1225 117.021C57.5651 118.061 57.2951 120.429 56.0288 120.619C54.2205 119.588 56.8969 115.561 57.9246 114.629C58.5257 114.084 58.6175 114.053 59.3759 113.808Z" fill="white"/>
<path d="M34.5625 86.7191C35.5154 86.9833 35.1329 88.2727 35.1905 89.1063C35.308 90.7983 36.7079 91.9584 34.6701 92.8327C33.1931 92.1972 33.2123 90.0756 33.3926 88.7037C33.5132 87.7871 33.8199 87.256 34.5625 86.7191Z" fill="white"/>
<path d="M65.8503 88.2702C66.1471 88.3323 66.1445 88.3159 66.3692 88.5415C67.0583 90.1475 64.5022 90.1054 63.6872 90.7398C62.9038 91.3497 62.4185 92.0738 61.5771 92.6491C61.3023 92.7182 61.4351 92.7232 61.1645 92.6285C60.7366 91.9437 61.6643 90.4737 62.1353 89.9104C63.1875 88.6513 64.2961 88.3897 65.8503 88.2702Z" fill="white"/>
<path d="M118.859 88.2562C119.789 88.2094 120.685 88.485 121.458 89.009C122.289 89.5735 124.046 91.7798 123.327 92.741C123.043 92.8252 123.188 92.8196 122.879 92.7185C122.418 92.1598 121.476 91.0699 120.865 90.7038C120.038 90.2079 118.465 89.9992 117.915 89.1149C117.881 88.51 118.342 88.3869 118.859 88.2562Z" fill="white"/>
<path d="M37.0342 88.0211C37.2962 88.0389 37.6383 88.0451 37.7823 88.3228C38.382 89.4805 38.8252 91.0897 38.6593 92.395C38.5997 92.862 38.2419 93.0654 37.8967 93.2922C36.0553 92.8249 35.7529 89.3707 37.0342 88.0211Z" fill="white"/>
<path d="M103.049 96.4059C105.379 96.3103 107.007 97.0475 108.585 98.7997C109.013 99.2745 109.421 100.097 108.69 100.498C107.427 99.0299 106.089 98.0416 104.13 97.9722C103.082 97.9355 101.974 97.5396 103.049 96.4059Z" fill="white"/>
<path d="M80.3357 96.4458C80.9117 96.3747 81.3355 96.5672 81.4889 97.1568C81.3129 97.7017 80.8942 97.738 80.3491 97.7694C77.7887 97.9177 77.4159 98.6376 75.6928 100.294C75.4531 100.477 75.3083 100.592 75.0196 100.493C74.7384 99.978 75.4086 98.7379 75.7424 98.349C76.9115 96.9868 78.6246 96.6026 80.3357 96.4458Z" fill="white"/>
<path d="M75.8488 105.985C76.1099 106.069 76.1626 106.056 76.3296 106.272C76.3814 107.001 76.2227 108.053 76.191 108.902C76.1634 109.638 76.3638 111.185 76.1832 111.879C76.1289 112.086 75.5898 112.223 75.3543 112.271C73.9464 110.9 74.2774 106.893 75.8488 105.985Z" fill="white"/>
<path d="M54.7445 136.266C55.9328 136.686 55.5316 137.905 56.1519 138.653C56.5258 139.105 57.2338 139.647 57.7241 140.153C57.5039 140.768 57.4752 140.971 56.9404 141.312C55.1549 140.683 52.476 138.001 54.7445 136.266Z" fill="white"/>
<path d="M129.358 132.555C130.905 132.828 130.653 135.39 130.439 136.543C130.293 137.327 130.007 137.754 129.343 138.169C128.983 138.229 128.836 138.265 128.513 138.125C127.979 137.598 128.522 136.32 128.669 135.596C128.836 134.777 128.909 133.169 129.358 132.555Z" fill="white"/>
<path d="M60.4323 116.429C60.7555 116.473 61.0554 116.565 61.2609 116.823C61.4157 117.481 60.0946 120.355 59.7897 121.108C59.6661 121.413 59.3907 121.514 59.0906 121.602C56.7026 120.653 59.3353 117.444 60.4323 116.429Z" fill="white"/>
<path d="M78.7195 108.059C79.0035 108.097 79.1834 108.152 79.3802 108.369C79.7316 108.757 81.0585 113.17 80.968 113.674C80.921 113.936 80.7005 114.053 80.5106 114.216C79.226 113.709 78.2922 110.862 78.2835 109.58C78.2785 108.835 78.2487 108.631 78.7195 108.059Z" fill="white"/>
<path d="M123.04 116.85C124.434 117.183 127.368 120.275 125.815 121.433C125.393 121.547 125.257 121.602 124.865 121.46C124.521 121.157 122.784 118.265 122.619 117.646C122.547 117.378 122.852 117.048 123.04 116.85Z" fill="white"/>
<path d="M63.2017 118.631L63.4122 118.773C63.7274 119.42 63.1165 120.685 62.8693 121.342C62.558 122.168 62.124 123.747 61.0309 123.63C59.2833 122.338 61.661 119.088 63.2017 118.631Z" fill="white"/>
<path d="M120.853 133.355C121.901 133.427 122.132 133.901 121.945 134.953C121.763 135.969 121.474 137.254 120.596 137.885C120.257 137.958 120.242 137.968 119.916 137.88C119.71 137.699 119.638 137.679 119.582 137.369C119.437 136.577 120.394 133.95 120.853 133.355Z" fill="white"/>
<path d="M111.797 102.787C113.308 103.477 115.133 106.561 113.921 107.916C113.584 108.046 113.513 108.104 113.199 108.04C112.726 107.485 112.135 104.472 111.7 103.598C111.569 103.334 111.652 103.044 111.797 102.787Z" fill="white"/>
<path d="M100.928 110.001C102.362 110.585 102.562 113.654 101.616 114.829C100.366 115.012 100.391 113.715 100.356 112.733C100.321 111.756 100.035 110.577 100.928 110.001Z" fill="white"/>
<path d="M105.699 106.37C107.023 106.611 107.707 108.267 107.946 109.456C108.101 110.23 108.058 110.583 107.615 111.218C107.395 111.375 107.413 111.368 107.144 111.393C106.341 111.029 105.77 107.715 105.564 106.817C105.547 106.743 105.661 106.458 105.699 106.37Z" fill="white"/>
<path d="M57.8313 136.871C58.7033 136.993 59.175 137.569 59.6488 138.268C60.2062 139.09 60.9343 140.206 59.8568 140.872C58.9564 140.838 56.5528 138.168 57.8313 136.871Z" fill="white"/>
<path d="M73.054 104.125L73.4009 104.237C73.8129 104.731 73.5381 105.887 73.3714 106.475C73.0278 107.687 73.5743 108.703 72.0628 108.723C70.6627 107.723 71.9924 104.846 73.054 104.125Z" fill="white"/>
<path d="M50.61 103.422C51.8478 103.431 51.9416 104.639 51.847 105.64C51.7752 106.4 51.4597 106.822 50.8544 107.266C48.9286 107.424 49.5687 104.247 50.61 103.422Z" fill="white"/>
<path d="M126.144 132.826C127.438 132.968 127.429 136.063 126.026 136.973C124.826 136.739 124.538 136.513 124.959 135.206C125.228 134.372 125.579 133.504 126.144 132.826Z" fill="white"/>
<path d="M120.875 118.603C121.994 118.833 123.041 120.891 123.09 121.981C123.101 122.235 122.874 122.392 122.709 122.546C122.246 122.613 121.943 122.692 121.6 122.297C120.88 121.471 120.532 120.258 120.511 119.174C120.506 118.939 120.72 118.756 120.875 118.603Z" fill="white"/>
<path d="M77.7344 132.506C78.9876 132.934 80.0988 135.376 78.9035 136.48L78.4564 136.545C77.5866 136.259 77.0476 134.004 77.1993 133.161C77.2698 132.771 77.4471 132.706 77.7344 132.506Z" fill="white"/>
<path d="M61.3402 136.784C62.1201 136.99 64.4627 139.465 62.5845 140.345C62.1474 140.444 61.7534 140.249 61.4964 139.907C60.6308 138.752 60.1971 137.778 61.3402 136.784Z" fill="white"/>
<path d="M90.0346 111.998C90.5474 112.126 90.737 112.427 90.9328 112.926C91.2563 113.752 91.4348 114.892 91.1266 115.739C91.0091 116.061 90.6825 116.101 90.4013 116.184C89.0813 115.859 89.4126 114.204 89.4446 113.155C89.4602 112.646 89.6913 112.348 90.0346 111.998Z" fill="white"/>
<path d="M41.3293 91.0861C42.1621 91.4937 42.8887 93.6953 42.8985 94.6314C42.9021 94.9902 42.6373 95.1769 42.3854 95.3828C40.8763 94.7813 39.9966 92.3953 41.3293 91.0861Z" fill="white"/>
<path d="M64.6903 120.578C66.1618 120.546 65.5339 122.038 65.2733 122.956C65.0815 123.632 64.7689 124.027 64.121 124.317C63.3628 123.967 63.1315 123.589 63.3205 122.75C63.5026 121.943 64.001 121.036 64.6903 120.578Z" fill="white"/>
<path d="M108.46 105.068C108.993 105.055 109.464 105.236 109.833 105.621C110.524 106.341 111.841 107.784 110.94 108.724C110.654 108.881 110.671 108.88 110.349 108.913C109.443 108.636 108.384 105.822 108.46 105.068Z" fill="white"/>
<path d="M83.5523 111.127C84.5036 111.247 85.2754 113.157 85.389 114.038C85.4308 114.362 85.1229 114.661 84.9126 114.863C84.5788 114.953 84.272 115.019 83.9939 114.734C83.3477 114.071 83.2004 112.992 83.1394 112.106C83.1057 111.615 83.2352 111.468 83.5523 111.127Z" fill="white"/>
<path d="M84.1222 132.829C84.7364 133.203 85.5577 135.734 85.1646 136.468C85.0304 136.718 84.7923 136.768 84.5353 136.845C83.5222 136.763 83.378 135.744 83.3654 134.885C83.3515 133.939 83.4526 133.509 84.1222 132.829Z" fill="white"/>
<path d="M80.2102 132.61C81.3572 132.516 81.6078 133.935 81.7236 134.835C81.7938 135.381 81.6112 135.591 81.2562 135.985C80.8416 136.076 80.4142 136.009 80.167 135.639C79.6678 134.894 79.4247 133.224 80.2102 132.61Z" fill="white"/>
<path d="M48.743 99.5213C49.948 99.9841 50.4149 102.152 49.3293 103.12C48.0105 103.111 47.94 101.889 48.0213 100.805C48.0687 100.175 48.2544 99.9033 48.743 99.5213Z" fill="white"/>
<path d="M88.7556 75.1805C89.7707 75.3872 89.8576 77.2486 89.6462 78.0437C89.5145 78.5399 89.485 78.5533 89.0816 78.7965C87.6375 78.3848 88.123 77.345 88.1035 76.0299C88.3121 75.6686 88.485 75.4917 88.7556 75.1805Z" fill="white"/>
<path d="M96.7183 111.403C97.377 111.421 97.7626 112.472 97.8417 113.011C97.9779 113.94 98.0049 114.215 97.457 114.989L97.0814 115.054C96.152 114.735 96.2987 112.746 96.2826 111.93C96.2781 111.702 96.5501 111.529 96.7183 111.403Z" fill="white"/>
<path d="M102.771 132.485C103.935 132.784 103.953 134.022 103.643 134.99C103.516 135.388 103.236 135.467 102.872 135.64C101.512 135.598 101.952 133.285 102.771 132.485Z" fill="white"/>
<path d="M105.688 133.176C106.812 133.252 107.22 135.559 105.934 136.248C104.128 136.075 104.955 134.086 105.688 133.176Z" fill="white"/>
<path d="M99.9547 132.573C100.309 132.588 100.503 132.663 100.631 133.011C100.934 133.843 101.055 135.503 100.123 135.961C99.5078 135.924 99.3257 135.746 99.262 135.116C99.1668 134.172 99.3678 133.295 99.9547 132.573Z" fill="white"/>
<path d="M86.1752 73.7791C87.4245 74.2923 87.1887 76.2643 86.1738 76.9831C85.2893 76.4718 85.1829 75.877 85.4121 74.8509C85.5271 74.3374 85.7367 74.0666 86.1752 73.7791Z" fill="white"/>
<path d="M118.811 120.953C119.844 121.179 120.895 122.993 120.023 123.923C119.657 124.031 119.625 124.087 119.273 123.972C118.621 123.454 118.453 121.642 118.811 120.953Z" fill="white"/>
<path d="M91.9351 75.2214C92.9068 75.6884 93.5243 77.6375 92.267 77.888C91.2029 77.5216 90.6925 76.0238 91.9351 75.2214Z" fill="white"/>
<path d="M85.7783 94.7331C87.1255 94.7666 87.0066 95.9696 86.1931 96.6801C85.1373 96.2251 84.3129 95.4129 85.7783 94.7331Z" fill="white"/>
<path d="M84.8553 0H84.9475C86.2363 0.438136 88.2837 0.496457 89.6555 0.725403C90.6759 0.895752 91.5612 1.29216 92.4934 1.64633C94.861 2.39646 95.4399 4.29067 96.7735 6.11794C97.6783 7.35734 98.3454 10.5294 98.0436 11.9893C97.4325 14.9489 96.2105 18.012 93.428 19.546C92.7559 19.9651 91.8168 20.2161 91.1367 20.5591C89.5555 21.3568 88.7899 21.606 87.0225 21.2167C85.8125 20.9502 84.2873 20.8697 83.0389 20.6966C82.5222 20.625 81.7368 21.3728 81.1465 21.1434C80.6365 20.9845 79.8238 20.0976 79.5568 19.5906C79.121 16.7229 80.2706 13.6689 79.858 10.6757C79.8096 10.3603 80.0807 9.62733 80.0368 9.37496C79.5462 6.56166 79.6915 3.97874 80.529 1.24137C80.821 0.287059 82.9429 0.403493 83.7213 0.323367C84.0568 0.28885 84.436 0.154012 84.7484 0.0399063L84.8553 0ZM83.3761 16.6609C86.1224 17.0595 87.4799 18.2344 90.1736 16.9679C90.5765 16.7784 91.1355 16.6666 91.5593 16.4483C93.0569 15.3642 93.6808 13.3324 94.1221 11.5945C94.0748 11.3508 94.0642 11.3644 93.9102 11.1635C93.9475 10.5677 94.138 10.1643 94.2062 9.58024L94.1505 9.49409C92.1899 6.41182 92.9077 5.39606 88.3416 4.38919C87.6133 4.22857 85.4706 3.96118 84.8155 4.07157C84.5154 4.12141 84.1111 4.14376 83.8956 4.3319C83.4827 5.75758 83.7132 9.49833 83.8758 11.0825C83.9162 11.4759 83.5515 12.4539 83.5412 12.8511C83.5025 14.3301 83.6372 15.1719 83.3761 16.6609Z" fill="white"/>
<path d="M96.3321 92.7597C97.3534 92.7867 98.2997 93.7571 97.1092 94.4222C95.7333 94.6832 95.7054 93.6986 96.3321 92.7597Z" fill="white"/>
<path d="M94.1919 74.4163C95.3691 74.6815 95.2666 75.7809 94.597 76.5688C93.4441 76.5109 93.4848 75.1434 94.1919 74.4163Z" fill="white"/>
<path d="M98.3769 94.8139C99.4647 94.9081 99.4402 96.1772 98.5648 96.6516C97.4008 96.1214 96.982 95.445 98.3769 94.8139Z" fill="white"/>
<path d="M99.4624 92.7026C100.724 92.6302 100.577 93.8742 99.8246 94.4882C99.2084 94.2227 98.6449 93.9572 98.7669 93.2047C98.9598 92.896 99.1152 92.8673 99.4624 92.7026Z" fill="white"/>
<path d="M84.5523 92.7932C85.6835 93.035 85.6329 94.2132 84.7071 94.5353C83.6375 94.0801 83.2786 93.3763 84.5523 92.7932Z" fill="white"/>
<path d="M87.5664 92.8032C88.6356 93.0993 88.5852 94.2486 87.6856 94.4882C86.5508 94.007 86.467 93.415 87.5664 92.8032Z" fill="white"/>
<path d="M62.7242 84.2183C62.9255 84.0592 63.195 83.736 63.3738 83.5363L63.4373 83.6965C63.2424 84.0475 63.1034 84.1439 62.7518 84.3624L62.7242 84.2183Z" fill="white"/>
<path d="M97.2392 179.983C96.7392 179.68 96.0234 179.481 95.6236 179.202C92.4204 176.964 93.0903 172.322 97.031 171.446C99.0946 170.987 101.597 171.886 102.367 174.038C102.544 174.535 102.61 175.11 102.779 175.628C102.197 177.236 102.284 178.386 100.404 179.374C99.5186 179.84 98.5553 179.638 97.9815 179.983H97.2392ZM96.426 174.205C95.814 175.336 95.8569 175.543 96.1347 176.809C97.1799 177.415 97.2868 177.537 98.5021 177.509C99.8516 177.319 100.133 177.149 100.529 175.837C99.7778 173.544 99.9112 174.242 98.0906 173.461C97.4753 173.775 97.0705 173.956 96.426 174.205Z" fill="white"/>
</svg>
