<svg width="24" height="24" viewBox="0 0 24 24" fill="none" xmlns="http://www.w3.org/2000/svg">
<path d="M2 2H21.9969V22H2V2Z" fill="#008061"/>
<path d="M14.3294 20.4381V21.216H9.53318V20.4367H5.90388C5.54926 20.4367 5.2604 20.066 5.2604 19.609L3.74176 4.25011C3.74176 3.79282 4.09638 3.42188 4.53398 3.42188H19.1999C19.6346 3.42188 19.9893 3.79282 19.9893 4.25011L18.4878 19.609C18.4878 20.066 18.1989 20.4367 17.8443 20.4367L14.3294 20.4381Z" fill="white"/>
<path d="M6.41297 5.67065H16.2313C15.2646 6.03302 12.3217 8.02556 11.5867 9.36521H6.42157L6.41297 5.67065Z" fill="#F5821F"/>
<path d="M14.2379 16.2568C14.0978 17.5948 14.0921 19.2241 14.0921 20.9355H9.83643C9.83643 19.2241 9.90793 17.5948 10.048 16.2568H14.2379Z" fill="#ED1B2D"/>
<path d="M7.65424 14.3234V14.842H6.97357V15.3607H7.65424V15.9551H6.09839V13.1892H7.65424V13.8053H6.97357V14.3234H7.65424Z" fill="#008061"/>
<path d="M11.272 14.3234V14.842H10.5943V15.3607H11.272V15.9551H9.71912V13.1892H11.272V13.8053H10.5943V14.3234H11.272Z" fill="#008061"/>
<path d="M15.2588 14.3234V14.842H14.5782V15.3607H15.2588V15.9551H13.703V13.1892H15.2588V13.8053H14.5782V14.3234H15.2588Z" fill="#008061"/>
<path d="M8.82109 13.1892V15.3607H9.50169V15.9551H7.94592V13.1892H8.82109Z" fill="#008061"/>
<path d="M12.5276 15.0585L12.1958 13.1892H11.4323L11.8669 15.9551H12.9909L13.5171 13.1892H12.8679L12.5276 15.0585Z" fill="#008061"/>
<path d="M15.6278 13.1892H16.4687V15.9548H15.6278V13.1892Z" fill="#008061"/>
<path d="M16.4686 14.0104C16.5144 13.7075 16.9434 13.7888 16.9434 13.9618V15.9552H17.7871V13.6109C17.7871 13.1138 17.0864 12.9139 16.4743 13.3515L16.4686 14.0104Z" fill="#008061"/>
<path d="M14.6326 12.8003C14.7184 11.7418 16.1684 10.0132 17.5726 9.55933V5.47583C13.7088 7.20443 11.1977 9.81874 10.6544 12.79L14.6326 12.8003Z" fill="#ED1B2D"/>
<path fill-rule="evenodd" clip-rule="evenodd" d="M15.1644 17.1419C15.2249 17.1419 15.2586 17.1122 15.2586 17.0619C15.2586 17.0094 15.2249 16.9796 15.1644 16.9796H15.0943V17.1419H15.1644ZM15.0943 17.434H14.9924V16.8903H15.179C15.2841 16.8903 15.3621 16.9645 15.3621 17.0606C15.3621 17.0967 15.3506 17.1318 15.3293 17.1608C15.308 17.1898 15.2779 17.2111 15.2437 17.2217L15.3647 17.434H15.2478L15.1347 17.2313H15.0943V17.434ZM15.1564 17.5681C15.3717 17.5681 15.5411 17.3936 15.5411 17.1663C15.5411 16.9389 15.3717 16.766 15.1564 16.766C14.9411 16.766 14.7714 16.9389 14.7714 17.1663C14.7714 17.3936 14.9411 17.5681 15.1564 17.5681ZM15.1564 16.6671C15.4293 16.6671 15.65 16.8915 15.65 17.1663C15.6502 17.2984 15.5984 17.4252 15.5059 17.519C15.4134 17.6128 15.2878 17.6659 15.1564 17.6667C14.8845 17.6667 14.6667 17.4407 14.6667 17.1663C14.6667 16.8915 14.8845 16.6671 15.1564 16.6671Z" fill="#007F5F"/>
</svg>
