<svg width="24" height="24" viewBox="0 0 24 24" fill="none" xmlns="http://www.w3.org/2000/svg">
<path d="M8.40499 21C7.90954 21 7.48539 20.8237 7.13257 20.4713C6.77974 20.1187 6.60333 19.695 6.60333 19.2C6.60333 18.705 6.77974 18.2812 7.13257 17.9287C7.48539 17.5762 7.90954 17.4 8.40499 17.4C8.90045 17.4 9.32459 17.5762 9.67742 17.9287C10.0302 18.2812 10.2067 18.705 10.2067 19.2C10.2067 19.695 10.0302 20.1187 9.67742 20.4713C9.32459 20.8237 8.90045 21 8.40499 21ZM17.4133 21C16.9179 21 16.4937 20.8237 16.1409 20.4713C15.7881 20.1187 15.6117 19.695 15.6117 19.2C15.6117 18.705 15.7881 18.2812 16.1409 17.9287C16.4937 17.5762 16.9179 17.4 17.4133 17.4C17.9088 17.4 18.3329 17.5762 18.6857 17.9287C19.0386 18.2812 19.215 18.705 19.215 19.2C19.215 19.695 19.0386 20.1187 18.6857 20.4713C18.3329 20.8237 17.9088 21 17.4133 21ZM7.63929 6.6L9.80128 11.1H16.1071L18.5844 6.6H7.63929ZM6.7835 4.8H20.0708C20.4161 4.8 20.6788 4.95375 20.859 5.26125C21.0392 5.56875 21.0467 5.88 20.8815 6.195L17.6836 11.955C17.5184 12.255 17.297 12.4875 17.0192 12.6525C16.7414 12.8175 16.4374 12.9 16.1071 12.9H9.39591L8.40499 14.7H19.215V16.5H8.40499C7.72937 16.5 7.2189 16.2037 6.87358 15.6112C6.52826 15.0187 6.51325 14.43 6.82854 13.845L8.04466 11.64L4.80166 4.8H3V3H5.92771L6.7835 4.8Z" fill="#002E4E"/>
</svg>
