<svg width="24" height="24" viewBox="0 0 24 24" fill="none" xmlns="http://www.w3.org/2000/svg">
<path d="M21.9579 2.09912H2.04803V8.73347H21.9579V2.09912Z" fill="#009E41"/>
<path d="M2.04803 9.73804H21.9579V16.3724H2.04803V9.73804Z" fill="#008BD5"/>
<path d="M2.6828 21.5323H2.04803V18.4199H4.02742V19.0205H2.6828V19.5666H4.00694V20.174H2.6828V21.5323Z" fill="#008BD5"/>
<path fill-rule="evenodd" clip-rule="evenodd" d="M5.86351 21.0888V20.0513C5.86351 19.7169 5.69288 19.2937 4.95573 19.2937C4.72206 19.2934 4.49046 19.3374 4.27318 19.4234V19.9762C4.45184 19.8606 4.66106 19.8012 4.87382 19.8056C5.06494 19.8056 5.26287 19.867 5.26287 20.0991C5.15467 20.0653 5.04175 20.0492 4.92843 20.0513C4.81863 20.0364 4.70692 20.0456 4.60102 20.0782C4.49512 20.1107 4.39757 20.1659 4.31512 20.24C4.23267 20.314 4.16729 20.405 4.12351 20.5068C4.07974 20.6086 4.05861 20.7187 4.06159 20.8294C4.06121 20.9245 4.08068 21.0185 4.11875 21.1056C4.15683 21.1927 4.21267 21.2709 4.28271 21.3351C4.35275 21.3994 4.43543 21.4483 4.52547 21.4788C4.6155 21.5092 4.71091 21.5205 4.80557 21.512C4.98463 21.5175 5.16028 21.4622 5.30383 21.355C5.31006 21.4055 5.3263 21.4542 5.3516 21.4983H6.03415C5.92494 21.471 5.86351 21.3481 5.86351 21.0888ZM5.2697 20.9318C5.18383 21.0094 5.0714 21.0509 4.95573 21.0478C4.76461 21.0478 4.64858 20.9386 4.64858 20.7885C4.64858 20.6383 4.79874 20.5018 5.01033 20.5018C5.09991 20.499 5.18886 20.5177 5.2697 20.5564V20.9318Z" fill="#008BD5"/>
<path fill-rule="evenodd" clip-rule="evenodd" d="M18.7431 20.0513V21.0888C18.7431 21.3183 18.8126 21.4409 18.8617 21.5276L18.8692 21.5409L18.8796 21.5597H18.1971C18.1718 21.5156 18.1555 21.4669 18.1493 21.4164C18.0045 21.4916 17.84 21.5202 17.6783 21.4983C17.5837 21.5069 17.4883 21.4956 17.3982 21.4651C17.3082 21.4347 17.2255 21.3857 17.1555 21.3215C17.0854 21.2572 17.0296 21.1791 16.9915 21.092C16.9534 21.0049 16.934 20.9108 16.9344 20.8158C16.9314 20.705 16.9525 20.5949 16.9963 20.4931C17.0401 20.3914 17.1054 20.3003 17.1879 20.2263C17.2703 20.1523 17.3679 20.0971 17.4738 20.0645C17.5797 20.0319 17.6914 20.0228 17.8012 20.0377C17.9199 20.0385 18.0375 20.0592 18.1493 20.0991C18.1493 19.867 17.9514 19.8056 17.7534 19.8056C17.5409 19.8032 17.3323 19.8625 17.1528 19.9762V19.4234C17.3703 19.3383 17.6018 19.2944 17.8353 19.2937C18.5725 19.2937 18.7431 19.7169 18.7431 20.0513ZM17.8353 21.0478C17.9508 21.0495 18.0627 21.0082 18.1493 20.9318V20.5564C18.0685 20.5177 17.9795 20.499 17.8899 20.5018C17.6783 20.5018 17.5282 20.6383 17.5282 20.7885C17.5282 20.9386 17.6374 21.0478 17.8353 21.0478Z" fill="#008BD5"/>
<path d="M8.50496 19.3687C8.38798 19.3603 8.27062 19.3787 8.16181 19.4225C8.05299 19.4662 7.95559 19.5342 7.87702 19.6213C7.81064 19.5393 7.72617 19.4739 7.63025 19.4301C7.53432 19.3863 7.42955 19.3653 7.32415 19.3687C7.12295 19.3664 6.92816 19.4394 6.77812 19.5735V19.3687H6.22525V21.5461H6.81907V20.0513C6.85581 20.0022 6.90309 19.962 6.95743 19.9337C7.01177 19.9053 7.07178 19.8895 7.13304 19.8875C7.31733 19.8875 7.41971 20.0103 7.41971 20.2356V21.5188H8.02718V20.0513C8.06244 20.0033 8.10879 19.9646 8.16229 19.9384C8.21578 19.9123 8.2748 19.8995 8.33432 19.9011C8.52543 19.9011 8.61417 20.0445 8.61417 20.2492V21.5324H9.22163V20.0513C9.22175 19.9587 9.20303 19.8671 9.16661 19.782C9.1302 19.6968 9.07685 19.62 9.00981 19.5562C8.94277 19.4923 8.86344 19.4428 8.77665 19.4106C8.68986 19.3783 8.59742 19.3641 8.50496 19.3687Z" fill="#008BD5"/>
<path d="M10.6209 18.4199H11.2148V21.5391H10.6209V18.4199Z" fill="#008BD5"/>
<path d="M15.2348 19.3891L14.443 18.4199H13.7946V21.5323H14.443V19.3891L15.2348 20.4266L16.0197 19.3891V21.5323H16.675V18.4199H16.0197L15.2348 19.3891Z" fill="#008BD5"/>
<path d="M9.61752 19.355H10.2113V21.5323H9.61752V19.355Z" fill="#008BD5"/>
<path d="M9.91099 18.3723C9.81754 18.3848 9.73179 18.4307 9.66969 18.5017C9.60759 18.5726 9.57336 18.6637 9.57336 18.758C9.57336 18.8522 9.60759 18.9433 9.66969 19.0142C9.73179 19.0852 9.81754 19.1311 9.91099 19.1436C9.96594 19.1509 10.0218 19.1464 10.0749 19.1304C10.1279 19.1144 10.177 19.0872 10.2187 19.0507C10.2604 19.0142 10.2938 18.9691 10.3167 18.9187C10.3396 18.8682 10.3515 18.8134 10.3515 18.758C10.3515 18.7025 10.3396 18.6477 10.3167 18.5972C10.2938 18.5468 10.2604 18.5018 10.2187 18.4652C10.177 18.4287 10.1279 18.4015 10.0749 18.3855C10.0218 18.3695 9.96594 18.365 9.91099 18.3723Z" fill="#008BD5"/>
<path d="M19.6441 19.3688V19.5873C19.6989 19.5054 19.773 19.4384 19.8599 19.3919C19.9468 19.3455 20.0438 19.3212 20.1423 19.3211C20.2431 19.3177 20.3428 19.3438 20.429 19.3962V20.0787C20.3324 20.0068 20.2149 19.9685 20.0945 19.9695C20.0114 19.9692 19.9293 19.9882 19.8547 20.0249C19.7801 20.0616 19.715 20.115 19.6645 20.1811V21.5462H19.0707V19.3688H19.6441Z" fill="#008BD5"/>
<path d="M21.446 20.6725V19.9285H21.9579V19.3688H21.446V18.5498L20.859 18.8023V19.3688H20.5382V19.9422H20.8794V20.7339C20.8794 21.1844 21.0637 21.5325 21.562 21.5325C21.6965 21.5343 21.8303 21.5136 21.9579 21.4711V20.8704C21.9221 20.9005 21.8808 20.9232 21.8363 20.9372C21.7918 20.9513 21.745 20.9564 21.6985 20.9523C21.521 20.9796 21.446 20.8363 21.446 20.6725Z" fill="#008BD5"/>
<path d="M12.0883 19.355L12.5388 20.5358L12.9551 19.355H13.6035L12.6002 22.0988H11.9313L12.2316 21.3344L11.4126 19.355H12.0883Z" fill="#008BD5"/>
</svg>
