<svg width="24" height="24" viewBox="0 0 24 24" fill="none" xmlns="http://www.w3.org/2000/svg">
<path fill-rule="evenodd" clip-rule="evenodd" d="M7.48364 2.03286C5.30573 2.32663 3.4273 3.78688 2.59063 5.83646C2.50917 6.03609 2.38084 6.44102 2.30551 6.73632L2.16854 7.27324V11.9521C2.16854 17.0908 2.15995 16.9297 2.4854 17.8837C3.0882 19.6504 4.54976 21.0926 6.36169 21.7086C7.23368 22.0051 7.13233 22 12.1599 22C17.1841 22 17.0818 22.0051 17.9605 21.7102C19.78 21.0995 21.2537 19.6249 21.8613 17.807C22.1528 16.935 22.1438 17.099 22.1637 12.2844C22.1763 9.2231 22.1644 7.70016 22.1254 7.40107C21.9149 5.78527 21.1212 4.34803 19.8943 3.36144C19.1636 2.7738 18.4114 2.39975 17.4495 2.14567L16.9384 2.01067L12.3643 2.00111C9.8486 1.99579 7.65229 2.01011 7.48364 2.03286ZM16.8689 3.69816C18.6896 4.04353 20.1152 5.46998 20.4604 7.29165C20.5819 7.93277 20.5819 16.0736 20.4604 16.7147C20.1152 18.5364 18.6896 19.9628 16.8689 20.3082C16.2281 20.4298 8.09171 20.4298 7.45093 20.3082C5.63025 19.9628 4.20458 18.5364 3.85941 16.7147C3.73792 16.0736 3.73792 7.93277 3.85941 7.29165C4.14013 5.81002 5.20019 4.5044 6.57195 3.95077C7.385 3.62264 7.35045 3.62468 12.116 3.6207C15.8606 3.61758 16.499 3.62801 16.8689 3.69816ZM17.0927 5.53967C16.3455 5.81329 16.1014 6.84314 16.6472 7.41856C17.0814 7.87622 17.7734 7.91799 18.2441 7.51495C18.5212 7.27764 18.6479 6.99752 18.6493 6.61923C18.6524 5.81125 17.8571 5.25971 17.0927 5.53967ZM11.2864 6.86355C9.91412 7.12413 8.65235 7.95215 7.87082 9.10498C7.6205 9.47417 7.27492 10.2376 7.14909 10.6993C6.98254 11.3104 6.95433 12.4261 7.08894 13.0777C7.49907 15.0628 8.97519 16.6087 10.9524 17.1235C11.4818 17.2614 12.4713 17.3079 13.0165 17.2205C14.1379 17.0407 15.1348 16.5352 15.9229 15.7467C17.5303 14.1385 17.9222 11.713 16.9034 9.67963C16.6263 9.12656 16.4492 8.88004 15.9708 8.38143C15.292 7.67377 14.4259 7.17373 13.4631 6.93365C12.9175 6.79758 11.8199 6.7622 11.2864 6.86355ZM12.9931 8.50435C13.1954 8.54869 13.5679 8.68644 13.8209 8.81055C15.3498 9.56038 16.1384 11.2848 15.7133 12.9492C15.401 14.1719 14.3469 15.2138 13.0991 15.5331C12.6194 15.6558 11.8682 15.6654 11.3933 15.5549C10.5663 15.3624 9.69073 14.7551 9.22117 14.0484C8.06436 12.3074 8.59363 9.99805 10.3987 8.91052C11.122 8.4747 12.1344 8.31623 12.9931 8.50435Z" fill="#002E4E"/>
</svg>
