<svg width="24" height="24" viewBox="0 0 24 24" fill="none" xmlns="http://www.w3.org/2000/svg">
<path d="M22.0128 16.6512C22.0128 18.3816 20.6176 19.7904 18.904 19.7904H1.98721V7.35837C1.98721 5.62877 3.38241 4.21997 5.09601 4.21997H22.0128V16.652V16.6512Z" fill="white"/>
<path fill-rule="evenodd" clip-rule="evenodd" d="M17.6432 5.27051C16.4192 5.27051 15.4152 6.27131 15.4152 7.51931V9.85531H18.56C18.6336 9.85531 18.72 9.85531 18.7808 9.86731C19.4904 9.90411 20.0168 10.2753 20.0168 10.9177C20.0168 11.4241 19.6616 11.8569 19.0008 11.9433V11.9673C19.7232 12.0177 20.2736 12.4249 20.2736 13.0553C20.2736 13.7353 19.6616 14.1801 18.8536 14.1801H15.4024V18.7521H18.6704C19.8944 18.7521 20.8984 17.7513 20.8984 16.5033V5.27051H17.6424H17.6432ZM16.504 13.4633H17.7888C17.8072 13.4633 17.8376 13.4601 17.8688 13.4569C17.8954 13.4538 17.9221 13.452 17.9488 13.4513C18.0799 13.4222 18.1968 13.3482 18.2793 13.2422C18.3618 13.1362 18.4047 13.0048 18.4008 12.8705C18.4008 12.5737 18.1928 12.3505 17.948 12.2897C17.9112 12.2769 17.8376 12.2769 17.7888 12.2769H16.504V13.4633ZM17.7888 10.5353C17.9162 10.5528 18.0328 10.6164 18.1163 10.7142C18.1997 10.812 18.2444 10.9371 18.2416 11.0657C18.2416 11.3625 18.0336 11.5601 17.7888 11.5969C17.7768 11.6097 17.7032 11.6097 17.6664 11.6097H16.504V10.5217H17.6664C17.6872 10.5217 17.7144 10.5257 17.7392 10.5297C17.7556 10.5322 17.7722 10.5346 17.7888 10.5353Z" fill="url(#paint0_linear_4384_4734)"/>
<path d="M5.32881 5.27051C4.10481 5.27051 3.10081 6.27131 3.10081 7.51931V13.0681C3.72481 13.3769 4.37441 13.5745 5.02321 13.5745C5.79441 13.5745 6.21041 13.1049 6.21041 12.4625V9.84251H8.12001V12.4505C8.12001 13.4633 7.49601 14.2905 5.37761 14.2905C4.09281 14.2905 3.08881 14.0073 3.08881 14.0073V18.7401H6.35681C7.58081 18.7401 8.58481 17.7393 8.58481 16.4905V5.27051H5.32881Z" fill="url(#paint1_linear_4384_4734)"/>
<path d="M11.4856 5.27051C10.2616 5.27051 9.25839 6.27131 9.25839 7.51931V10.4601C9.82159 9.97851 10.8008 9.66971 12.3792 9.74411C13.224 9.78091 14.1296 10.0161 14.1296 10.0161V10.9673C13.6768 10.7321 13.1384 10.5225 12.4408 10.4729C11.2408 10.3865 10.5192 10.9793 10.5192 12.0169C10.5192 13.0681 11.2408 13.6609 12.4408 13.5625C13.1384 13.5129 13.6768 13.2905 14.1296 13.0681V14.0201C14.1296 14.0201 13.236 14.2545 12.3792 14.2913C10.8008 14.3657 9.82159 14.0561 9.25839 13.5745V18.7649H12.5264C13.7504 18.7649 14.7544 17.7633 14.7544 16.5153V5.27051H11.4856Z" fill="url(#paint2_linear_4384_4734)"/>
<defs>
<linearGradient id="paint0_linear_4384_4734" x1="15.4128" y1="11.0641" x2="20.9136" y2="11.0641" gradientUnits="userSpaceOnUse">
<stop stop-color="#007940"/>
<stop offset="0.229" stop-color="#00873F"/>
<stop offset="0.743" stop-color="#40A737"/>
<stop offset="1" stop-color="#5CB531"/>
</linearGradient>
<linearGradient id="paint1_linear_4384_4734" x1="3.09841" y1="12.0057" x2="8.68401" y2="12.0057" gradientUnits="userSpaceOnUse">
<stop stop-color="#1F286F"/>
<stop offset="0.475" stop-color="#004E94"/>
<stop offset="0.826" stop-color="#0066B1"/>
<stop offset="1" stop-color="#006FBC"/>
</linearGradient>
<linearGradient id="paint2_linear_4384_4734" x1="9.22639" y1="12.0057" x2="14.6512" y2="12.0057" gradientUnits="userSpaceOnUse">
<stop stop-color="#6C2C2F"/>
<stop offset="0.173" stop-color="#882730"/>
<stop offset="0.573" stop-color="#BE1833"/>
<stop offset="0.859" stop-color="#DC0436"/>
<stop offset="1" stop-color="#E60039"/>
</linearGradient>
</defs>
</svg>
