<svg width="24" height="24" viewBox="0 0 24 24" fill="none" xmlns="http://www.w3.org/2000/svg">
<path fill-rule="evenodd" clip-rule="evenodd" d="M4.88073 2.06833C3.59273 2.33909 2.50228 3.36363 2.11064 4.67089C2.02612 4.95309 2.01897 5.43671 2.00522 11.8168C1.99219 17.834 2.00001 18.7093 2.06976 19.0685C2.16507 19.5593 2.50249 20.2713 2.83705 20.6876C3.25475 21.2073 3.97665 21.6775 4.68006 21.8879C4.96244 21.9724 5.44637 21.9795 11.8305 21.9933C19.4939 22.0098 19.1192 22.0259 19.9194 21.6467C20.4746 21.3835 20.8841 21.063 21.2313 20.6194C21.5521 20.2097 21.7782 19.7673 21.9094 19.2926C21.9936 18.9882 21.9996 18.499 21.9996 11.9955C21.9996 4.19416 22.027 4.79044 21.6325 4.00327C21.19 3.12009 20.4711 2.49843 19.4956 2.15535L19.0868 2.01159L12.1626 2.00235C6.23608 1.99448 5.18688 2.00398 4.88073 2.06833ZM13.5047 5.32865C16.367 5.85701 18.4738 7.58717 19.1245 9.94383C19.2852 10.5254 19.2841 11.6957 19.1224 12.3019C18.7312 13.7688 17.5669 15.177 15.4124 16.7891C13.8238 17.9778 11.9778 19.0941 11.6007 19.0941C11.3211 19.0941 11.297 18.9603 11.4235 18.1095C11.5593 17.1959 11.4667 17.0882 10.364 16.8765C7.98446 16.4197 6.14093 15.1508 5.23895 13.3488C4.81164 12.4951 4.73392 12.1497 4.7333 11.1018C4.73284 10.3025 4.74378 10.1981 4.87082 9.78542C5.59676 7.42758 7.86575 5.69737 10.7829 5.27723C11.408 5.18719 12.89 5.21523 13.5047 5.32865ZM7.10664 9.64074C7.07195 9.70549 7.05253 10.3008 7.05253 11.2991C7.05253 12.6467 7.06336 12.8672 7.13281 12.9367C7.2461 13.0498 9.25503 13.0572 9.3484 12.9447C9.38442 12.9014 9.40215 12.7436 9.39296 12.5489L9.37763 12.2253L8.62475 12.2112L7.87188 12.1971L7.85824 10.8834L7.84459 9.56975L7.50268 9.55474C7.20547 9.54167 7.15366 9.5529 7.10664 9.64074ZM9.88721 9.60612C9.87315 9.64273 9.86774 10.4194 9.87515 11.332L9.88864 12.9914L10.1408 13.0073C10.2794 13.0161 10.4465 13.0098 10.5119 12.9934L10.631 12.9635L10.6175 11.2667L10.6041 9.56975L10.2584 9.55464C10.0101 9.54376 9.9056 9.55826 9.88721 9.60612ZM11.1747 9.57828C11.1559 9.59697 11.1406 10.3644 11.1406 11.2836C11.1406 13.1707 11.1019 13.0169 11.5774 13.0169C11.797 13.0169 11.8631 12.997 11.9053 12.9181C11.9361 12.8607 11.9582 12.4405 11.9582 11.9145V11.0096L12.7031 12.0132L13.4479 13.0169L13.7379 13.0161C13.8974 13.0157 14.0569 12.9969 14.0924 12.9743C14.1428 12.9424 14.154 12.5631 14.1435 11.2515L14.13 9.56975L13.7931 9.55484C13.5557 9.54432 13.4391 9.56051 13.3983 9.60969C13.3612 9.65443 13.3354 10.0072 13.3264 10.5934L13.3124 11.5074L12.585 10.5258L11.8576 9.54422H11.5332C11.3547 9.54422 11.1934 9.55954 11.1747 9.57828ZM14.7016 9.57731C14.6824 9.59656 14.6666 10.3644 14.6666 11.2836C14.6666 12.7605 14.676 12.9585 14.7474 12.9859C14.87 13.0329 16.8288 13.0214 16.9048 12.9732C16.9514 12.9437 16.9666 12.826 16.9559 12.5782L16.9406 12.2253L16.1868 12.2112L15.4331 12.1971V11.9431V11.6891L16.1357 11.6883C16.5222 11.6879 16.8683 11.6686 16.9048 11.6454C16.9514 11.6159 16.9666 11.4983 16.9559 11.2504L16.9406 10.8975L16.1842 10.8834L15.4278 10.8692L15.4433 10.6025L15.4587 10.3358L16.2146 10.3216L16.9706 10.3075L16.9556 9.93862L16.9406 9.56975L15.8386 9.55602C15.2325 9.54846 14.7209 9.55806 14.7016 9.57731Z" fill="#002E4E"/>
</svg>
