<svg width="24" height="24" viewBox="0 0 24 24" fill="none" xmlns="http://www.w3.org/2000/svg">
<path d="M15.3167 6.60913H8.68613V17.3898H15.3167V6.60913Z" fill="#FF5F00"/>
<path d="M9.36909 12.0004C9.36738 9.89702 10.3374 7.90968 11.9995 6.61102C9.1758 4.40197 5.12093 4.72374 2.68449 7.3502C0.248033 9.97665 0.248033 14.026 2.68449 16.6524C5.12093 19.2789 9.1758 19.6006 11.9995 17.3916C10.3369 16.0925 9.36686 14.1044 9.36909 12.0004Z" fill="#EB001B"/>
<path d="M23.1429 12.0003C23.1428 14.6252 21.6372 17.0196 19.2655 18.1666C16.8938 19.3137 14.0724 19.012 11.9995 17.3897C13.6609 16.0899 14.6309 14.1029 14.6309 11.9994C14.6309 9.89594 13.6609 7.90884 11.9995 6.60908C14.0724 4.98677 16.8938 4.68507 19.2655 5.83212C21.6372 6.97917 23.1428 9.37359 23.1429 11.9984V12.0003Z" fill="#F79E1B"/>
</svg>
