<svg width="24" height="24" viewBox="0 0 24 24" fill="none" xmlns="http://www.w3.org/2000/svg">
<path d="M9.17039 8.31203L6.09039 15.704H4.08159L2.56639 9.80482C2.47439 9.44082 2.39439 9.30723 2.11439 9.15443C1.65759 8.90643 0.90239 8.67123 0.23999 8.52643L0.28559 8.31203H3.51919C3.93119 8.31203 4.30239 8.58803 4.39519 9.06563L5.19519 13.3432L7.17359 8.31123H9.17039V8.31203ZM17.0424 13.2904C17.0504 11.3384 14.3608 11.232 14.3784 10.36C14.3848 10.096 14.636 9.81283 15.1848 9.74163C15.4568 9.70563 16.208 9.67843 17.0576 10.072L17.3912 8.50403C16.8237 8.28879 16.2221 8.17767 15.6152 8.17603C13.7368 8.17603 12.4144 9.18083 12.4032 10.6192C12.3912 11.6832 13.3464 12.2776 14.0672 12.6312C14.808 12.9936 15.056 13.2264 15.0528 13.5496C15.048 14.0456 14.4624 14.264 13.9144 14.2728C12.9592 14.288 12.4056 14.0128 11.9632 13.8056L11.6192 15.4256C12.0624 15.6304 12.8832 15.8096 13.732 15.8184C15.7304 15.82 17.036 14.828 17.0424 13.2904ZM22.0024 15.704H23.76L22.2264 8.31203H20.6048C20.2392 8.31203 19.932 8.52483 19.796 8.85443L16.944 15.704H18.9392L19.3352 14.6H21.7744L22.0024 15.704ZM19.8824 13.0848L20.8824 10.3088L21.4584 13.0848H19.8824ZM11.8864 8.31123L10.3144 15.704H8.41279L9.98639 8.31203H11.8864V8.31123Z" fill="#1434CB"/>
</svg>
